<svg width="24" height="20" viewBox="0 0 24 20" fill="none" xmlns="http://www.w3.org/2000/svg">
<path d="M15.8706 11.6198C15.8706 13.7541 14.1344 15.4904 12 15.4904C9.86565 15.4904 8.13004 13.7541 8.13004 11.6198C8.13004 9.48542 9.86565 7.74915 12 7.74915C14.1344 7.74915 15.8706 9.48609 15.8706 11.6198ZM24 6.12367V17.1172C24 18.5828 22.8117 19.771 21.3462 19.771H2.65384C1.18826 19.771 0 18.5828 0 17.1172V6.12367C0 4.65809 1.18826 3.46983 2.65384 3.46983H5.91806V2.5516C5.91806 1.26913 6.95704 0.229492 8.24017 0.229492H15.7598C17.043 0.229492 18.0819 1.26913 18.0819 2.5516V3.46917H21.3462C22.8117 3.46983 24 4.65809 24 6.12367ZM17.861 11.6198C17.861 8.38806 15.2317 5.75877 12 5.75877C8.76895 5.75877 6.13966 8.38806 6.13966 11.6198C6.13966 14.8515 8.76895 17.4808 12 17.4808C15.2317 17.4808 17.861 14.8515 17.861 11.6198Z" fill="white"/>
</svg>
