<svg width="10" height="22" viewBox="0 0 10 22" fill="none" xmlns="http://www.w3.org/2000/svg">
<path d="M2.16145 4.2607C2.16145 4.81511 2.16145 7.28967 2.16145 7.28967H0V10.9935H2.16145V22H6.60152V10.9938H9.58101C9.58101 10.9938 9.86005 9.21785 9.99532 7.27601C9.60752 7.27601 6.61831 7.27601 6.61831 7.27601C6.61831 7.27601 6.61831 5.12124 6.61831 4.74355C6.61831 4.36504 7.10241 3.8559 7.58088 3.8559C8.05846 3.8559 9.06642 3.8559 10 3.8559C10 3.35162 10 1.60921 10 1.32306e-08C8.7537 1.32306e-08 7.33582 1.32306e-08 6.71082 1.32306e-08C2.05169 -0.000255734 2.16145 3.70726 2.16145 4.2607Z" fill="#FDFDFD"/>
</svg>
