<svg width="14" height="14" viewBox="0 0 14 14" fill="none" xmlns="http://www.w3.org/2000/svg">
<path d="M4.95045 13.4751V7.04197L0.150116 1.83382C-0.106787 1.53907 -0.0779218 0.93335 0.585985 0.93335H13.3907C14.0142 0.93335 14.1586 1.46877 13.8266 1.83382L9.14173 6.90405V10.8845C9.14173 11.0468 9.084 11.1847 8.93678 11.2928L5.94054 13.8834C5.59415 14.1241 4.95045 13.9943 4.95045 13.4751ZM1.86761 2.02582L5.97229 6.46869C6.05889 6.57686 6.11662 6.68772 6.11662 6.82293V12.2474L7.97845 10.6655V6.71477C7.97845 6.57956 8.03618 6.46869 8.12277 6.36053L12.1091 2.02582H1.86761Z" fill="#2E2E2E"/>
</svg>
