<svg width="22" height="22" viewBox="0 0 22 22" fill="none" xmlns="http://www.w3.org/2000/svg">
<path d="M12.0657 13.2693H17.4385C16.4954 15.9352 13.9412 17.8466 10.9508 17.8245C7.32238 17.7977 4.32219 14.8957 4.18132 11.2706C4.03033 7.38471 7.14843 4.17529 11.0021 4.17529C12.7641 4.17529 14.372 4.84652 15.5842 5.94642C15.8714 6.20701 16.3084 6.20866 16.5908 5.94289L18.5642 4.08592C18.8728 3.79547 18.8739 3.30499 18.5663 3.01356C16.6438 1.19261 14.0649 0.0575955 11.221 0.00207167C5.15535 -0.116329 0.0425247 4.85598 0.000273689 10.9216C-0.0423526 17.0327 4.89967 22 11.0021 22C16.8706 22 21.6647 17.4059 21.9858 11.6187C21.9944 11.5461 22 9.09402 22 9.09402H12.0657C11.6585 9.09402 11.3284 9.42401 11.3284 9.83113V12.5322C11.3284 12.9393 11.6586 13.2693 12.0657 13.2693Z" fill="#FDFDFD"/>
</svg>
