<svg width="11" height="17" viewBox="0 0 11 17" fill="none" xmlns="http://www.w3.org/2000/svg">
<path fill-rule="evenodd" clip-rule="evenodd" d="M0 8.54559C0 5.52063 2.45663 3.05231 5.47745 3.05231C8.49827 3.05231 10.9549 5.52063 10.9549 8.54559V13.3085C10.9549 13.7119 10.6279 14.0389 10.2246 14.0389H0.730327C0.326978 14.0389 0 13.7119 0 13.3085V8.54559ZM5.47745 4.51296C3.26791 4.51296 1.46065 6.32274 1.46065 8.54559V12.5782H9.49425V8.54559C9.49425 6.32274 7.68699 4.51296 5.47745 4.51296Z" fill="#FDFDFD"/>
<path fill-rule="evenodd" clip-rule="evenodd" d="M5.44966 1.92708C4.85674 1.92708 4.60714 2.2974 4.60714 2.50399V3.5639H3.14648V2.50399C3.14648 1.22669 4.34221 0.466431 5.44966 0.466431C6.62715 0.466431 7.75284 1.2849 7.75284 2.50399V3.5639H6.29219V2.50399C6.29219 2.30986 6.05757 1.92708 5.44966 1.92708Z" fill="#FDFDFD"/>
<path fill-rule="evenodd" clip-rule="evenodd" d="M8.2565 12.9662C8.64054 13.0895 8.85191 13.5008 8.7286 13.8848C8.2552 15.3592 7.033 16.5336 5.47709 16.5336C3.9457 16.5336 2.67019 15.4238 2.22073 13.9073C2.10611 13.5206 2.32669 13.1142 2.71341 12.9996C3.10013 12.885 3.50655 13.1055 3.62117 13.4923C3.91984 14.5 4.70172 15.073 5.47709 15.073C6.22795 15.073 7.00079 14.4881 7.33787 13.4383C7.46118 13.0542 7.87247 12.8429 8.2565 12.9662Z" fill="#FDFDFD"/>
</svg>
