<svg width="20" height="20" viewBox="0 0 20 20" fill="none" xmlns="http://www.w3.org/2000/svg">
<path d="M19.6551 16.5519H0.344843C0.154414 16.5519 0 16.3975 0 16.2071V3.79333C0 3.6029 0.154414 3.44849 0.344843 3.44849H19.6552C19.8456 3.44849 20 3.6029 20 3.79333V16.2071C20 16.3976 19.8455 16.5519 19.6551 16.5519Z" fill="#F5F5F5"/>
<path d="M20 4.45649H0V3.79333C0 3.6029 0.154414 3.44849 0.344843 3.44849H19.6552C19.8456 3.44849 20 3.6029 20 3.79333L20 4.45649Z" fill="#FF4B55"/>
<path d="M20 7.48047H0V8.48844H20V7.48047Z" fill="#FF4B55"/>
<path d="M20 5.46448H0V6.47244H20V5.46448Z" fill="#FF4B55"/>
<path d="M20 10.5042H0.344843C0.154414 10.5042 0 10.3498 0 10.1594V9.49622H20V10.5042Z" fill="#FF4B55"/>
<path d="M20 13.5282H0V14.5362H20V13.5282Z" fill="#FF4B55"/>
<path d="M19.6551 16.552H0.344843C0.154414 16.552 0 16.3976 0 16.2072V15.5441H20V16.2072C20 16.3977 19.8455 16.552 19.6551 16.552Z" fill="#FF4B55"/>
<path d="M20 11.5122H0V12.5202H20V11.5122Z" fill="#FF4B55"/>
<path d="M8.96549 3.44836H0.344843C0.154414 3.44836 0 3.60274 0 3.79317V10.1592C0 10.3496 0.154414 10.504 0.344843 10.504H8.96553C9.15596 10.504 9.31037 10.3496 9.31037 10.1592V3.79317C9.31033 3.60274 9.15592 3.44836 8.96549 3.44836Z" fill="#41479B"/>
<path d="M0.968216 4.23976L1.04454 4.46867L1.28583 4.4705C1.31708 4.47078 1.33001 4.51062 1.30489 4.52917L1.11079 4.67253L1.18361 4.90257C1.19306 4.93234 1.15911 4.95702 1.13368 4.93882L0.937396 4.79855L0.741107 4.93886C0.715678 4.95702 0.681811 4.93238 0.691186 4.90261L0.763998 4.67257L0.569897 4.52921C0.54478 4.51062 0.557709 4.47081 0.588959 4.47054L0.830248 4.46871L0.906576 4.2398C0.916419 4.21011 0.958294 4.21011 0.968216 4.23976Z" fill="#F5F5F5"/>
<path d="M0.968216 5.437L1.04454 5.6659L1.28583 5.66774C1.31708 5.66801 1.33001 5.70786 1.30489 5.72641L1.11079 5.86977L1.18361 6.09981C1.19306 6.12957 1.15911 6.15426 1.13368 6.13606L0.937396 5.99578L0.741107 6.1361C0.715678 6.15426 0.681811 6.12961 0.691186 6.09985L0.763998 5.86981L0.569897 5.72645C0.54478 5.70786 0.557709 5.66805 0.588959 5.66778L0.830248 5.66594L0.906576 5.43704C0.916419 5.40739 0.958294 5.40739 0.968216 5.437Z" fill="#F5F5F5"/>
<path d="M0.968216 6.63463L1.04454 6.86354L1.28583 6.86537C1.31708 6.86565 1.33001 6.90549 1.30489 6.92404L1.11079 7.0674L1.18361 7.29744C1.19306 7.32721 1.15911 7.3519 1.13368 7.3337L0.937396 7.19342L0.741107 7.33373C0.715678 7.3519 0.681811 7.32725 0.691186 7.29748L0.763998 7.06744L0.569897 6.92408C0.54478 6.90549 0.557709 6.86568 0.588959 6.86541L0.830248 6.86358L0.906576 6.63467C0.916419 6.60502 0.958294 6.60502 0.968216 6.63463Z" fill="#F5F5F5"/>
<path d="M0.968216 7.83205L1.04454 8.06095L1.28583 8.06279C1.31708 8.06306 1.33001 8.10291 1.30489 8.12146L1.11079 8.26482L1.18361 8.49486C1.19306 8.52462 1.15911 8.54931 1.13368 8.53111L0.937396 8.39083L0.741107 8.53115C0.715678 8.54931 0.681811 8.52466 0.691186 8.4949L0.763998 8.26486L0.569897 8.1215C0.54478 8.1029 0.557709 8.0631 0.588959 8.06283L0.830248 8.06099L0.906576 7.83208C0.916419 7.8024 0.958294 7.8024 0.968216 7.83205Z" fill="#F5F5F5"/>
<path d="M0.968216 9.02958L1.04454 9.25849L1.28583 9.26033C1.31708 9.2606 1.33001 9.30044 1.30489 9.319L1.11079 9.46236L1.18361 9.6924C1.19306 9.72216 1.15911 9.74685 1.13368 9.72865L0.937396 9.58837L0.741107 9.72868C0.715678 9.74685 0.681811 9.7222 0.691186 9.69243L0.763998 9.4624L0.569897 9.31904C0.54478 9.30044 0.557709 9.26064 0.588959 9.26037L0.830248 9.25853L0.906576 9.02962C0.916419 8.9999 0.958294 8.9999 0.968216 9.02958Z" fill="#F5F5F5"/>
<path d="M1.8979 4.82677L1.97423 5.05568L2.21552 5.05752C2.24677 5.05779 2.2597 5.09763 2.23458 5.11619L2.04048 5.25955L2.11329 5.48959C2.12275 5.51935 2.0888 5.54404 2.06337 5.52584L1.86708 5.38552L1.67079 5.52584C1.64537 5.544 1.6115 5.51935 1.62087 5.48959L1.69369 5.25955L1.49958 5.11619C1.47447 5.09759 1.4874 5.05779 1.51865 5.05752L1.75993 5.05568L1.83626 4.82677C1.84607 4.79716 1.88802 4.79716 1.8979 4.82677Z" fill="#F5F5F5"/>
<path d="M1.8979 6.02419L1.97423 6.25309L2.21552 6.25493C2.24677 6.2552 2.2597 6.29505 2.23458 6.3136L2.04048 6.45696L2.11329 6.687C2.12275 6.71677 2.0888 6.74145 2.06337 6.72325L1.86708 6.58294L1.67079 6.72325C1.64537 6.74141 1.6115 6.7168 1.62087 6.687L1.69369 6.45696L1.49958 6.3136C1.47447 6.29501 1.4874 6.2552 1.51865 6.25493L1.75993 6.25309L1.83626 6.02419C1.84607 5.99454 1.88802 5.99454 1.8979 6.02419Z" fill="#F5F5F5"/>
<path d="M1.8979 7.2217L1.97423 7.45061L2.21552 7.45244C2.24677 7.45272 2.2597 7.49256 2.23458 7.51112L2.04048 7.65448L2.11329 7.88452C2.12275 7.91428 2.0888 7.93897 2.06337 7.92077L1.86708 7.78045L1.67079 7.92077C1.64537 7.93893 1.6115 7.91428 1.62087 7.88452L1.69369 7.65448L1.49958 7.51112C1.47447 7.49252 1.4874 7.45272 1.51865 7.45244L1.75993 7.45061L1.83626 7.2217C1.84607 7.19205 1.88802 7.19205 1.8979 7.2217Z" fill="#F5F5F5"/>
<path d="M1.8979 8.41894L1.97423 8.64784L2.21552 8.64968C2.24677 8.64995 2.2597 8.68979 2.23458 8.70835L2.04048 8.85171L2.11329 9.08175C2.12275 9.11151 2.0888 9.1362 2.06337 9.118L1.86708 8.97769L1.67079 9.118C1.64537 9.13616 1.6115 9.11151 1.62087 9.08175L1.69369 8.85171L1.49958 8.70835C1.47447 8.68976 1.4874 8.64995 1.51865 8.64968L1.75993 8.64784L1.83626 8.41894C1.84607 8.38933 1.88802 8.38933 1.8979 8.41894Z" fill="#F5F5F5"/>
<path d="M2.82662 4.23964L2.90294 4.46855L3.14423 4.47039C3.17548 4.47066 3.18841 4.5105 3.16329 4.52906L2.96919 4.67242L3.04201 4.90245C3.05146 4.93222 3.01751 4.95691 2.99208 4.9387L2.79579 4.79839L2.59951 4.9387C2.57408 4.95687 2.54021 4.93222 2.54958 4.90245L2.6224 4.67242L2.4283 4.52906C2.40318 4.51046 2.41611 4.47066 2.44736 4.47039L2.68865 4.46855L2.76497 4.23964C2.77482 4.21 2.81673 4.21 2.82662 4.23964Z" fill="#F5F5F5"/>
<path d="M2.82662 5.43725L2.90294 5.66615L3.14423 5.66799C3.17548 5.66826 3.18841 5.7081 3.16329 5.72666L2.96919 5.87002L3.04201 6.10006C3.05146 6.12982 3.01751 6.15451 2.99208 6.13631L2.79579 5.99599L2.59951 6.13631C2.57408 6.15447 2.54021 6.12982 2.54958 6.10006L2.6224 5.87002L2.4283 5.72666C2.40318 5.70807 2.41611 5.66826 2.44736 5.66799L2.68865 5.66615L2.76497 5.43725C2.77482 5.40764 2.81673 5.40764 2.82662 5.43725Z" fill="#F5F5F5"/>
<path d="M2.82662 6.63439L2.90294 6.86329L3.14423 6.86513C3.17548 6.8654 3.18841 6.90525 3.16329 6.9238L2.96919 7.06716L3.04201 7.2972C3.05146 7.32696 3.01751 7.35165 2.99208 7.33345L2.79579 7.19314L2.59951 7.33345C2.57408 7.35161 2.54021 7.32696 2.54958 7.2972L2.6224 7.06716L2.4283 6.9238C2.40318 6.90521 2.41611 6.8654 2.44736 6.86513L2.68865 6.86329L2.76497 6.63439C2.77482 6.60478 2.81673 6.60478 2.82662 6.63439Z" fill="#F5F5F5"/>
<path d="M2.82662 7.83193L2.90294 8.06083L3.14423 8.06267C3.17548 8.06294 3.18841 8.10279 3.16329 8.12134L2.96919 8.2647L3.04201 8.49474C3.05146 8.52451 3.01751 8.54919 2.99208 8.53099L2.79579 8.39068L2.59951 8.53099C2.57408 8.54915 2.54021 8.52451 2.54958 8.49474L2.6224 8.2647L2.4283 8.12134C2.40318 8.10275 2.41611 8.06294 2.44736 8.06267L2.68865 8.06083L2.76497 7.83193C2.77482 7.80228 2.81673 7.80228 2.82662 7.83193Z" fill="#F5F5F5"/>
<path d="M2.82662 9.02947L2.90294 9.25837L3.14423 9.26021C3.17548 9.26048 3.18841 9.30033 3.16329 9.31888L2.96919 9.46224L3.04201 9.69228C3.05146 9.72205 3.01751 9.74673 2.99208 9.72853L2.79579 9.58822L2.59951 9.72853C2.57408 9.74669 2.54021 9.72205 2.54958 9.69228L2.6224 9.46224L2.4283 9.31888C2.40318 9.30029 2.41611 9.26048 2.44736 9.26021L2.68865 9.25837L2.76497 9.02947C2.77482 8.99978 2.81673 8.99978 2.82662 9.02947Z" fill="#F5F5F5"/>
<path d="M3.7563 4.82677L3.83263 5.05568L4.07392 5.05752C4.10517 5.05779 4.1181 5.09763 4.09298 5.11619L3.89888 5.25955L3.97169 5.48959C3.98115 5.51935 3.9472 5.54404 3.92177 5.52584L3.72548 5.38552L3.52919 5.52584C3.50376 5.544 3.4699 5.51935 3.47927 5.48959L3.55208 5.25955L3.35798 5.11619C3.33287 5.09759 3.3458 5.05779 3.37705 5.05752L3.61833 5.05568L3.69466 4.82677C3.70447 4.79716 3.74642 4.79716 3.7563 4.82677Z" fill="#F5F5F5"/>
<path d="M3.7563 6.02419L3.83263 6.25309L4.07392 6.25493C4.10517 6.2552 4.1181 6.29505 4.09298 6.3136L3.89888 6.45696L3.97169 6.687C3.98115 6.71677 3.9472 6.74145 3.92177 6.72325L3.72548 6.58294L3.52919 6.72325C3.50376 6.74141 3.4699 6.7168 3.47927 6.687L3.55208 6.45696L3.35798 6.3136C3.33287 6.29501 3.3458 6.2552 3.37705 6.25493L3.61833 6.25309L3.69466 6.02419C3.70447 5.99454 3.74642 5.99454 3.7563 6.02419Z" fill="#F5F5F5"/>
<path d="M3.7563 7.2217L3.83263 7.45061L4.07392 7.45244C4.10517 7.45272 4.1181 7.49256 4.09298 7.51112L3.89888 7.65448L3.97169 7.88452C3.98115 7.91428 3.9472 7.93897 3.92177 7.92077L3.72548 7.78045L3.52919 7.92077C3.50376 7.93893 3.4699 7.91428 3.47927 7.88452L3.55208 7.65448L3.35798 7.51112C3.33287 7.49252 3.3458 7.45272 3.37705 7.45244L3.61833 7.45061L3.69466 7.2217C3.70447 7.19205 3.74642 7.19205 3.7563 7.2217Z" fill="#F5F5F5"/>
<path d="M3.7563 8.41894L3.83263 8.64784L4.07392 8.64968C4.10517 8.64995 4.1181 8.68979 4.09298 8.70835L3.89888 8.85171L3.97169 9.08175C3.98115 9.11151 3.9472 9.1362 3.92177 9.118L3.72548 8.97769L3.52919 9.118C3.50376 9.13616 3.4699 9.11151 3.47927 9.08175L3.55208 8.85171L3.35798 8.70835C3.33287 8.68976 3.3458 8.64995 3.37705 8.64968L3.61833 8.64784L3.69466 8.41894C3.70447 8.38933 3.74642 8.38933 3.7563 8.41894Z" fill="#F5F5F5"/>
<path d="M4.68603 4.23964L4.76236 4.46855L5.00365 4.47039C5.0349 4.47066 5.04783 4.5105 5.02271 4.52906L4.82861 4.67242L4.90142 4.90245C4.91088 4.93222 4.87693 4.95691 4.8515 4.9387L4.65517 4.79839L4.45888 4.9387C4.43345 4.95687 4.39958 4.93222 4.40896 4.90245L4.48177 4.67242L4.28767 4.52906C4.26255 4.51046 4.27548 4.47066 4.30673 4.47039L4.54802 4.46855L4.62435 4.23964C4.63423 4.21 4.67615 4.21 4.68603 4.23964Z" fill="#F5F5F5"/>
<path d="M4.68603 5.43725L4.76236 5.66615L5.00365 5.66799C5.0349 5.66826 5.04783 5.7081 5.02271 5.72666L4.82861 5.87002L4.90142 6.10006C4.91088 6.12982 4.87693 6.15451 4.8515 6.13631L4.65517 5.99599L4.45888 6.13631C4.43345 6.15447 4.39958 6.12982 4.40896 6.10006L4.48177 5.87002L4.28767 5.72666C4.26255 5.70807 4.27548 5.66826 4.30673 5.66799L4.54802 5.66615L4.62435 5.43725C4.63423 5.40764 4.67615 5.40764 4.68603 5.43725Z" fill="#F5F5F5"/>
<path d="M4.68603 6.63439L4.76236 6.86329L5.00365 6.86513C5.0349 6.8654 5.04783 6.90525 5.02271 6.9238L4.82861 7.06716L4.90142 7.2972C4.91088 7.32696 4.87693 7.35165 4.8515 7.33345L4.65517 7.19314L4.45888 7.33345C4.43345 7.35161 4.39958 7.32696 4.40896 7.2972L4.48177 7.06716L4.28767 6.9238C4.26255 6.90521 4.27548 6.8654 4.30673 6.86513L4.54802 6.86329L4.62435 6.63439C4.63423 6.60478 4.67615 6.60478 4.68603 6.63439Z" fill="#F5F5F5"/>
<path d="M4.68603 7.83193L4.76236 8.06083L5.00365 8.06267C5.0349 8.06294 5.04783 8.10279 5.02271 8.12134L4.82861 8.2647L4.90142 8.49474C4.91088 8.52451 4.87693 8.54919 4.8515 8.53099L4.65517 8.39068L4.45888 8.53099C4.43345 8.54915 4.39958 8.52451 4.40896 8.49474L4.48177 8.2647L4.28767 8.12134C4.26255 8.10275 4.27548 8.06294 4.30673 8.06267L4.54802 8.06083L4.62435 7.83193C4.63423 7.80228 4.67615 7.80228 4.68603 7.83193Z" fill="#F5F5F5"/>
<path d="M4.68603 9.02947L4.76236 9.25837L5.00365 9.26021C5.0349 9.26048 5.04783 9.30033 5.02271 9.31888L4.82861 9.46224L4.90142 9.69228C4.91088 9.72205 4.87693 9.74673 4.8515 9.72853L4.65517 9.58822L4.45888 9.72853C4.43345 9.74669 4.39958 9.72205 4.40896 9.69228L4.48177 9.46224L4.28767 9.31888C4.26255 9.30029 4.27548 9.26048 4.30673 9.26021L4.54802 9.25837L4.62435 9.02947C4.63423 8.99978 4.67615 8.99978 4.68603 9.02947Z" fill="#F5F5F5"/>
<path d="M5.61568 4.82677L5.692 5.05568L5.93329 5.05752C5.96454 5.05779 5.97747 5.09763 5.95235 5.11619L5.75825 5.25955L5.83107 5.48959C5.84052 5.51935 5.80657 5.54404 5.78114 5.52584L5.58486 5.38552L5.38857 5.52584C5.36314 5.544 5.32927 5.51935 5.33865 5.48959L5.41146 5.25955L5.21736 5.11619C5.19224 5.09759 5.20517 5.05779 5.23642 5.05752L5.47771 5.05568L5.55404 4.82677C5.56392 4.79716 5.60579 4.79716 5.61568 4.82677Z" fill="#F5F5F5"/>
<path d="M5.61568 6.02419L5.692 6.25309L5.93329 6.25493C5.96454 6.2552 5.97747 6.29505 5.95235 6.3136L5.75825 6.45696L5.83107 6.687C5.84052 6.71677 5.80657 6.74145 5.78114 6.72325L5.58486 6.58294L5.38857 6.72325C5.36314 6.74141 5.32927 6.7168 5.33865 6.687L5.41146 6.45696L5.21736 6.3136C5.19224 6.29501 5.20517 6.2552 5.23642 6.25493L5.47771 6.25309L5.55404 6.02419C5.56392 5.99454 5.60579 5.99454 5.61568 6.02419Z" fill="#F5F5F5"/>
<path d="M5.61568 7.2217L5.692 7.45061L5.93329 7.45244C5.96454 7.45272 5.97747 7.49256 5.95235 7.51112L5.75825 7.65448L5.83107 7.88452C5.84052 7.91428 5.80657 7.93897 5.78114 7.92077L5.58486 7.78045L5.38857 7.92077C5.36314 7.93893 5.32927 7.91428 5.33865 7.88452L5.41146 7.65448L5.21736 7.51112C5.19224 7.49252 5.20517 7.45272 5.23642 7.45244L5.47771 7.45061L5.55404 7.2217C5.56392 7.19205 5.60579 7.19205 5.61568 7.2217Z" fill="#F5F5F5"/>
<path d="M5.61568 8.41894L5.692 8.64784L5.93329 8.64968C5.96454 8.64995 5.97747 8.68979 5.95235 8.70835L5.75825 8.85171L5.83107 9.08175C5.84052 9.11151 5.80657 9.1362 5.78114 9.118L5.58486 8.97769L5.38857 9.118C5.36314 9.13616 5.32927 9.11151 5.33865 9.08175L5.41146 8.85171L5.21736 8.70835C5.19224 8.68976 5.20517 8.64995 5.23642 8.64968L5.47771 8.64784L5.55404 8.41894C5.56392 8.38933 5.60579 8.38933 5.61568 8.41894Z" fill="#F5F5F5"/>
<path d="M6.54439 4.23964L6.62071 4.46855L6.862 4.47039C6.89325 4.47066 6.90618 4.5105 6.88106 4.52906L6.68696 4.67242L6.75978 4.90245C6.76923 4.93222 6.73528 4.95691 6.70985 4.9387L6.51357 4.79839L6.31728 4.9387C6.29185 4.95687 6.25798 4.93222 6.26736 4.90245L6.34017 4.67242L6.14607 4.52906C6.12095 4.51046 6.13388 4.47066 6.16513 4.47039L6.40642 4.46855L6.48275 4.23964C6.49255 4.21 6.5345 4.21 6.54439 4.23964Z" fill="#F5F5F5"/>
<path d="M6.54439 5.43725L6.62071 5.66615L6.862 5.66799C6.89325 5.66826 6.90618 5.7081 6.88106 5.72666L6.68696 5.87002L6.75978 6.10006C6.76923 6.12982 6.73528 6.15451 6.70985 6.13631L6.51357 5.99599L6.31728 6.13631C6.29185 6.15447 6.25798 6.12982 6.26736 6.10006L6.34017 5.87002L6.14607 5.72666C6.12095 5.70807 6.13388 5.66826 6.16513 5.66799L6.40642 5.66615L6.48275 5.43725C6.49255 5.40764 6.5345 5.40764 6.54439 5.43725Z" fill="#F5F5F5"/>
<path d="M6.54439 6.63439L6.62071 6.86329L6.862 6.86513C6.89325 6.8654 6.90618 6.90525 6.88106 6.9238L6.68696 7.06716L6.75978 7.2972C6.76923 7.32696 6.73528 7.35165 6.70985 7.33345L6.51357 7.19314L6.31728 7.33345C6.29185 7.35161 6.25798 7.32696 6.26736 7.2972L6.34017 7.06716L6.14607 6.9238C6.12095 6.90521 6.13388 6.8654 6.16513 6.86513L6.40642 6.86329L6.48275 6.63439C6.49255 6.60478 6.5345 6.60478 6.54439 6.63439Z" fill="#F5F5F5"/>
<path d="M6.54439 7.83193L6.62071 8.06083L6.862 8.06267C6.89325 8.06294 6.90618 8.10279 6.88106 8.12134L6.68696 8.2647L6.75978 8.49474C6.76923 8.52451 6.73528 8.54919 6.70985 8.53099L6.51357 8.39068L6.31728 8.53099C6.29185 8.54915 6.25798 8.52451 6.26736 8.49474L6.34017 8.2647L6.14607 8.12134C6.12095 8.10275 6.13388 8.06294 6.16513 8.06267L6.40642 8.06083L6.48275 7.83193C6.49255 7.80228 6.5345 7.80228 6.54439 7.83193Z" fill="#F5F5F5"/>
<path d="M6.54439 9.02947L6.62071 9.25837L6.862 9.26021C6.89325 9.26048 6.90618 9.30033 6.88106 9.31888L6.68696 9.46224L6.75978 9.69228C6.76923 9.72205 6.73528 9.74673 6.70985 9.72853L6.51357 9.58822L6.31728 9.72853C6.29185 9.74669 6.25798 9.72205 6.26736 9.69228L6.34017 9.46224L6.14607 9.31888C6.12095 9.30029 6.13388 9.26048 6.16513 9.26021L6.40642 9.25837L6.48275 9.02947C6.49255 8.99978 6.5345 8.99978 6.54439 9.02947Z" fill="#F5F5F5"/>
<path d="M7.47408 4.82677L7.55041 5.05568L7.7917 5.05752C7.82295 5.05779 7.83588 5.09763 7.81076 5.11619L7.61666 5.25955L7.68947 5.48959C7.69892 5.51935 7.66498 5.54404 7.63955 5.52584L7.44326 5.38552L7.24697 5.52584C7.22154 5.544 7.18767 5.51935 7.19705 5.48959L7.26986 5.25955L7.07576 5.11619C7.05064 5.09759 7.06357 5.05779 7.09482 5.05752L7.33611 5.05568L7.41244 4.82677C7.42228 4.79716 7.46423 4.79716 7.47408 4.82677Z" fill="#F5F5F5"/>
<path d="M7.47408 6.02419L7.55041 6.25309L7.7917 6.25493C7.82295 6.2552 7.83588 6.29505 7.81076 6.3136L7.61666 6.45696L7.68947 6.687C7.69892 6.71677 7.66498 6.74145 7.63955 6.72325L7.44326 6.58294L7.24697 6.72325C7.22154 6.74141 7.18767 6.7168 7.19705 6.687L7.26986 6.45696L7.07576 6.3136C7.05064 6.29501 7.06357 6.2552 7.09482 6.25493L7.33611 6.25309L7.41244 6.02419C7.42228 5.99454 7.46423 5.99454 7.47408 6.02419Z" fill="#F5F5F5"/>
<path d="M7.47408 7.2217L7.55041 7.45061L7.7917 7.45244C7.82295 7.45272 7.83588 7.49256 7.81076 7.51112L7.61666 7.65448L7.68947 7.88452C7.69892 7.91428 7.66498 7.93897 7.63955 7.92077L7.44326 7.78045L7.24697 7.92077C7.22154 7.93893 7.18767 7.91428 7.19705 7.88452L7.26986 7.65448L7.07576 7.51112C7.05064 7.49252 7.06357 7.45272 7.09482 7.45244L7.33611 7.45061L7.41244 7.2217C7.42228 7.19205 7.46423 7.19205 7.47408 7.2217Z" fill="#F5F5F5"/>
<path d="M7.47408 8.41894L7.55041 8.64784L7.7917 8.64968C7.82295 8.64995 7.83588 8.68979 7.81076 8.70835L7.61666 8.85171L7.68947 9.08175C7.69892 9.11151 7.66498 9.1362 7.63955 9.118L7.44326 8.97769L7.24697 9.118C7.22154 9.13616 7.18767 9.11151 7.19705 9.08175L7.26986 8.85171L7.07576 8.70835C7.05064 8.68976 7.06357 8.64995 7.09482 8.64968L7.33611 8.64784L7.41244 8.41894C7.42228 8.38933 7.46423 8.38933 7.47408 8.41894Z" fill="#F5F5F5"/>
<path d="M8.40376 4.23964L8.48009 4.46855L8.72138 4.47039C8.75263 4.47066 8.76556 4.5105 8.74044 4.52906L8.54634 4.67242L8.61915 4.90245C8.62861 4.93222 8.59466 4.95691 8.56923 4.9387L8.37294 4.79839L8.17665 4.9387C8.15122 4.95687 8.11736 4.93222 8.12673 4.90245L8.19954 4.67242L8.00544 4.52906C7.98033 4.51046 7.99326 4.47066 8.02451 4.47039L8.26579 4.46855L8.34212 4.23964C8.35197 4.21 8.39384 4.21 8.40376 4.23964Z" fill="#F5F5F5"/>
<path d="M8.40376 5.43725L8.48009 5.66615L8.72138 5.66799C8.75263 5.66826 8.76556 5.7081 8.74044 5.72666L8.54634 5.87002L8.61915 6.10006C8.62861 6.12982 8.59466 6.15451 8.56923 6.13631L8.37294 5.99599L8.17665 6.13631C8.15122 6.15447 8.11736 6.12982 8.12673 6.10006L8.19954 5.87002L8.00544 5.72666C7.98033 5.70807 7.99326 5.66826 8.02451 5.66799L8.26579 5.66615L8.34212 5.43725C8.35197 5.40764 8.39384 5.40764 8.40376 5.43725Z" fill="#F5F5F5"/>
<path d="M8.40376 6.63439L8.48009 6.86329L8.72138 6.86513C8.75263 6.8654 8.76556 6.90525 8.74044 6.9238L8.54634 7.06716L8.61915 7.2972C8.62861 7.32696 8.59466 7.35165 8.56923 7.33345L8.37294 7.19314L8.17665 7.33345C8.15122 7.35161 8.11736 7.32696 8.12673 7.2972L8.19954 7.06716L8.00544 6.9238C7.98033 6.90521 7.99326 6.8654 8.02451 6.86513L8.26579 6.86329L8.34212 6.63439C8.35197 6.60478 8.39384 6.60478 8.40376 6.63439Z" fill="#F5F5F5"/>
<path d="M8.40376 7.83193L8.48009 8.06083L8.72138 8.06267C8.75263 8.06294 8.76556 8.10279 8.74044 8.12134L8.54634 8.2647L8.61915 8.49474C8.62861 8.52451 8.59466 8.54919 8.56923 8.53099L8.37294 8.39068L8.17665 8.53099C8.15122 8.54915 8.11736 8.52451 8.12673 8.49474L8.19954 8.2647L8.00544 8.12134C7.98033 8.10275 7.99326 8.06294 8.02451 8.06267L8.26579 8.06083L8.34212 7.83193C8.35197 7.80228 8.39384 7.80228 8.40376 7.83193Z" fill="#F5F5F5"/>
<path d="M8.40376 9.02947L8.48009 9.25837L8.72138 9.26021C8.75263 9.26048 8.76556 9.30033 8.74044 9.31888L8.54634 9.46224L8.61915 9.69228C8.62861 9.72205 8.59466 9.74673 8.56923 9.72853L8.37294 9.58822L8.17665 9.72853C8.15122 9.74669 8.11736 9.72205 8.12673 9.69228L8.19954 9.46224L8.00544 9.31888C7.98033 9.30029 7.99326 9.26048 8.02451 9.26021L8.26579 9.25837L8.34212 9.02947C8.35197 8.99978 8.39384 8.99978 8.40376 9.02947Z" fill="#F5F5F5"/>
</svg>
