<svg width="22" height="20" viewBox="0 0 22 20" fill="none" xmlns="http://www.w3.org/2000/svg">
<path fill-rule="evenodd" clip-rule="evenodd" d="M0.889832 6.82985C1.22459 3.45679 3.76585 0.849976 7.08438 0.849976C8.70812 0.849976 10.1999 1.48354 11.3101 2.57488C12.4462 1.48819 13.9797 0.850322 15.6157 0.850322C18.9351 0.850322 21.476 3.45776 21.8107 6.83117C21.8555 7.13468 21.921 7.94171 21.6269 9.13811C21.1792 10.9614 20.1495 12.5986 18.6775 13.8806L18.6708 13.8865L12.0326 19.5769C11.605 19.9434 10.9727 19.9407 10.5483 19.5706L4.02276 13.8804C2.55064 12.5987 1.52094 10.9611 1.07325 9.13838M0.889832 6.82985C0.844026 7.13721 0.779819 7.94447 1.07325 9.13838L0.889832 6.82985ZM7.08438 3.11422C5.08358 3.11422 3.36993 4.68512 3.14393 7.07846C3.14134 7.10598 3.13773 7.1334 3.13312 7.16066C3.13313 7.16066 3.04848 7.67507 3.2755 8.59867C3.60455 9.93851 4.36899 11.1777 5.51303 12.1738L11.3004 17.2203L17.1901 12.1715C18.3326 11.1754 19.0958 9.93777 19.4245 8.59894C19.6536 7.6673 19.5656 7.15071 19.5669 7.1581C19.5625 7.13184 19.5591 7.10544 19.5565 7.07895C19.3302 4.68542 17.6168 3.11457 15.6157 3.11457C14.2335 3.11457 12.9708 3.8292 12.2617 4.96986C12.0538 5.30422 11.6869 5.50681 11.2928 5.50488C10.8987 5.50296 10.5338 5.2968 10.3293 4.96042C9.62255 3.79841 8.42535 3.11422 7.08438 3.11422Z" fill="#2E2E2E"/>
</svg>
