<svg width="20" height="19" viewBox="0 0 20 19" fill="none" xmlns="http://www.w3.org/2000/svg">
<path d="M19.7465 2.47516C19.548 2.24399 19.2623 2.11099 18.961 2.11099H4.60363L4.40103 0.882323C4.31791 0.373545 3.88467 -0.00012207 3.37662 -0.00012207H1.03896C0.464415 -0.00012207 0 0.471711 0 1.05543C0 1.63916 0.464415 2.11099 1.03896 2.11099H2.49662L4.42908 13.8952C4.4374 13.9427 4.46129 13.9818 4.47584 14.0261C4.49246 14.082 4.50597 14.1348 4.53194 14.1855C4.56519 14.2552 4.60986 14.3143 4.65662 14.3744C4.68882 14.4156 4.71791 14.4568 4.75532 14.4927C4.81558 14.5497 4.88519 14.5898 4.95584 14.6299C4.99532 14.652 5.0296 14.6816 5.0722 14.6985C5.19272 14.7481 5.31947 14.7777 5.4535 14.7777H16.8831C17.4576 14.7777 17.922 14.3058 17.922 13.7221C17.922 13.1384 17.4576 12.6665 16.8831 12.6665H6.33454L6.16207 11.611H17.922C18.4395 11.611 18.8779 11.2247 18.9506 10.7053L19.9896 3.31643C20.0322 3.01243 19.9428 2.70527 19.7465 2.47516ZM17.7631 4.2221L17.467 6.33321H13.7662V4.2221H17.7631ZM12.7273 4.2221V6.33321H9.61037V4.2221H12.7273ZM12.7273 7.38877V9.49988H9.61037V7.38877H12.7273ZM8.57141 4.2221V6.33321H5.45454C5.39947 6.33321 5.3496 6.34905 5.30077 6.36488L4.9496 4.2221H8.57141ZM5.46908 7.38877H8.57141V9.49988H5.81506L5.46908 7.38877ZM13.7662 9.49988V7.38877H17.3174L17.0213 9.49988H13.7662Z" fill="#2E2E2E"/>
<path d="M7.01296 18.9999C7.87366 18.9999 8.5714 18.291 8.5714 17.4165C8.5714 16.5421 7.87366 15.8332 7.01296 15.8332C6.15226 15.8332 5.45452 16.5421 5.45452 17.4165C5.45452 18.291 6.15226 18.9999 7.01296 18.9999Z" fill="#2E2E2E"/>
<path d="M16.3637 18.9999C17.2244 18.9999 17.9221 18.291 17.9221 17.4165C17.9221 16.5421 17.2244 15.8332 16.3637 15.8332C15.503 15.8332 14.8052 16.5421 14.8052 17.4165C14.8052 18.291 15.503 18.9999 16.3637 18.9999Z" fill="#2E2E2E"/>
</svg>
