<svg width="19" height="19" viewBox="0 0 19 19" fill="none" xmlns="http://www.w3.org/2000/svg">
<path d="M18.5776 16.511L14.6612 12.5946C15.605 11.2321 16.0772 9.71322 16.0772 8.0387C16.0772 6.95016 15.8658 5.9091 15.4432 4.91574C15.0208 3.92223 14.4499 3.06589 13.7305 2.34653C13.0112 1.62717 12.1549 1.05618 11.1616 0.633775C10.168 0.211245 9.12705 0 8.03852 0C6.95008 0 5.90902 0.211245 4.91568 0.633775C3.92218 1.05618 3.06585 1.62717 2.3465 2.34653C1.62707 3.06589 1.05617 3.92239 0.633727 4.91574C0.211242 5.90922 0 6.95016 0 8.0387C0 9.12716 0.211242 10.1679 0.633727 11.1615C1.05613 12.1549 1.62707 13.0111 2.3465 13.7304C3.06585 14.45 3.92234 15.0208 4.91568 15.4434C5.90914 15.8659 6.95008 16.0771 8.03852 16.0771C9.71338 16.0771 11.232 15.6049 12.5946 14.6611L16.511 18.5661C16.7851 18.8553 17.1272 19 17.5386 19C17.9344 19 18.2771 18.8553 18.5662 18.5661C18.8553 18.277 19 17.9344 19 17.5386C19.0001 17.1354 18.8593 16.7926 18.5776 16.511ZM11.6524 11.6523C10.6515 12.6534 9.44691 13.154 8.03852 13.154C6.63037 13.154 5.42583 12.6533 4.42477 11.6523C3.42371 10.6513 2.9232 9.44687 2.9232 8.03846C2.9232 6.6303 3.42383 5.42554 4.42477 4.42466C5.42563 3.42355 6.63037 2.92307 8.03852 2.92307C9.44675 2.92307 10.6513 3.42375 11.6524 4.42466C12.6536 5.42554 13.1541 6.6303 13.1541 8.03846C13.1541 9.44687 12.6534 10.6513 11.6524 11.6523Z" fill="#BFBFBF"/>
</svg>
