<svg width="147" height="39" viewBox="0 0 147 39" fill="none" xmlns="http://www.w3.org/2000/svg">
<path d="M63.5889 30.3491C69.0784 30.3491 72.3721 27.1725 72.3721 21.146V9.33048H69.4938V21.0273C69.4938 25.6288 67.3574 27.7069 63.6186 27.7069C59.8798 27.7069 57.773 25.6288 57.773 21.0273V9.33048H54.8057V21.146C54.8057 27.1725 58.129 30.3491 63.5889 30.3491Z" fill="#F18036"/>
<path d="M87.031 14.2289C84.5385 14.2289 82.5207 15.1492 81.3635 16.7523V14.3773H78.6336V30.1116H81.4822V22.007C81.4822 18.5929 83.4406 16.782 86.4672 16.782C89.1675 16.782 90.7105 18.296 90.7105 21.3835V30.1116H93.5591V21.057C93.5591 16.4257 90.8589 14.2289 87.031 14.2289Z" fill="#F18036"/>
<path d="M107.822 14.2289C105.418 14.2289 103.46 15.0898 102.273 16.6039V8.08362H99.4244V30.1116H102.273V22.007C102.273 18.5929 104.231 16.782 107.258 16.782C109.958 16.782 111.501 18.296 111.501 21.3835V30.1116H114.35V21.057C114.35 16.4257 111.65 14.2289 107.822 14.2289Z" fill="#F18036"/>
<path d="M125.942 14.2289C123.42 14.2289 121.076 14.9414 119.444 16.2476L120.631 18.3851C121.847 17.346 123.746 16.6929 125.616 16.6929C128.435 16.6929 129.829 18.0882 129.829 20.4929V21.057H125.319C120.631 21.057 118.999 23.1351 118.999 25.6585C118.999 28.3897 121.254 30.2897 124.815 30.2897C127.277 30.2897 129.028 29.4585 129.978 28.0335V30.1116H132.678V20.6116C132.678 16.307 130.245 14.2289 125.942 14.2289ZM125.289 28.0928C123.123 28.0928 121.818 27.1132 121.818 25.5397C121.818 24.2038 122.619 23.1054 125.438 23.1054H129.829V25.3022C129.117 27.1132 127.426 28.0928 125.289 28.0928Z" fill="#F18036"/>
<path d="M141.273 17.0195V14.3773H138.543V30.1116H141.392V22.2741C141.392 18.8304 143.291 16.9601 146.347 16.9601C146.555 16.9601 146.762 16.9601 147 16.9898V14.2289C144.24 14.2289 142.282 15.1789 141.273 17.0195Z" fill="#F18036"/>
<path d="M37.8123 22.8986C37.8123 28.1357 36.1747 32.1286 32.8995 34.8771C29.6243 37.6257 24.969 39 18.9338 39C12.8985 39 8.22487 37.6257 4.91284 34.8771C1.63761 32.1286 0 28.1357 0 22.8986V1.3313C0 0.59604 0.595206 0 1.32943 0H10.8699C11.6041 0 12.1993 0.596042 12.1993 1.3313V22.7314C12.1993 24.8857 12.7697 26.6129 13.9105 27.9129C15.0513 29.1757 16.7073 29.8071 18.8786 29.8071C21.0498 29.8071 22.7058 29.1571 23.8466 27.8571C25.0242 26.5571 25.613 24.8486 25.613 22.7314V1.3313C25.613 0.596041 26.2082 0 26.9424 0H36.4829C37.2171 0 37.8123 0.596042 37.8123 1.3313V22.8986Z" fill="url(#paint0_linear)"/>
<path fill-rule="evenodd" clip-rule="evenodd" d="M12.5501 25.395C13.951 31.9456 20.1787 36.8838 27.6493 36.8838C28.5031 36.8838 29.3406 36.8193 30.1565 36.6953C27.187 38.2318 23.4461 39 18.9338 39C12.8985 39 8.22487 37.6257 4.91284 34.8771C1.63761 32.1286 0 28.1357 0 22.8986V1.3313C0 0.59604 0.595206 0 1.32943 0H10.8699C11.6041 0 12.1993 0.596042 12.1993 1.3313V22.7314C12.1993 23.7069 12.3162 24.5947 12.5501 25.395Z" fill="#282322"/>
<defs>
<linearGradient id="paint0_linear" x1="48.8586" y1="-1.75942e-06" x2="12.2641" y2="31.6971" gradientUnits="userSpaceOnUse">
<stop offset="0.193581" stop-color="#FDA659"/>
<stop offset="0.753634" stop-color="#EB6D26"/>
<stop offset="1" stop-color="#B92100"/>
</linearGradient>
</defs>
</svg>
