<svg width="25" height="29" viewBox="0 0 25 29" fill="none" xmlns="http://www.w3.org/2000/svg">
<path d="M1.29016 10.6604C-1.2961 14.9148 0.348032 21.3712 3.20801 25.2859C4.63559 27.2431 6.08092 28.9999 8.06055 28.9999C8.09787 28.9999 8.13528 28.9992 8.17359 28.9978C9.10368 28.9626 9.7758 28.6912 10.4256 28.4288C11.1552 28.1341 11.9098 27.8293 13.0933 27.8293C14.2193 27.8293 14.9379 28.1242 15.6328 28.4092C16.3176 28.6901 17.023 28.9807 18.0653 28.9621C20.2952 28.9228 21.6643 27.027 22.8723 25.3546C24.1327 23.6085 24.765 21.913 24.9784 21.2652L24.987 21.2394C25.0276 21.1242 24.9703 20.9986 24.8538 20.9479C24.8506 20.9464 24.8388 20.9418 24.8354 20.9405C24.4428 20.7882 20.9982 19.3397 20.962 15.3915C20.9284 12.1838 23.5461 10.4852 24.0711 10.1773L24.0955 10.1628C24.1524 10.1281 24.192 10.0731 24.2055 10.0101C24.2189 9.94727 24.2049 9.88186 24.1667 9.82899C22.3599 7.32244 19.5906 6.94468 18.4757 6.89923C18.3139 6.88392 18.1469 6.87622 17.9792 6.87622C16.6697 6.87622 15.4152 7.34507 14.4074 7.72178C13.7117 7.98183 13.1108 8.20642 12.6964 8.20642C12.2307 8.20642 11.6263 7.97908 10.9265 7.71589C9.99074 7.3638 8.93006 6.96484 7.80719 6.96484C7.78041 6.96484 7.75404 6.96512 7.72806 6.9656C5.11723 7.00201 2.65023 8.41797 1.29016 10.6604Z" fill="white"/>
<path d="M18.4779 0.000182694C16.8969 0.0612253 15.0003 0.983806 13.8667 2.2425C12.9033 3.30048 11.9622 5.06444 12.2101 6.84247C12.2257 6.95372 12.3212 7.03958 12.4392 7.04823C12.5459 7.05612 12.6549 7.06011 12.7634 7.06021C14.3093 7.06021 15.977 6.24945 17.1159 4.94397C18.3146 3.56547 18.9208 1.79638 18.7374 0.21174C18.723 0.087563 18.6077 -0.00466649 18.4779 0.000182694Z" fill="white"/>
</svg>
