<svg width="26" height="29" viewBox="0 0 26 29" fill="none" xmlns="http://www.w3.org/2000/svg">
<path d="M24.7387 12.3219L19.759 9.48584L12.9365 14.5128L19.7589 19.5397L24.7556 16.6939C25.5347 16.2272 25.9996 15.4116 25.9996 14.5129C25.9996 13.6142 25.5346 12.7986 24.7387 12.3219Z" fill="#FF9100"/>
<path d="M14.6616 14.5138C14.6541 14.5232 8.62933 22.162 8.62445 22.1682L0.7762 28.2633C0.293174 27.787 0 27.1407 0 26.4262V2.55916C0 1.84481 0.293174 1.19838 0.7762 0.722168L8.62445 6.85939C8.62933 6.86557 14.6541 14.5043 14.6616 14.5138Z" fill="#25D9F8"/>
<path d="M14.6614 14.5188L12.9365 16.713V12.3245L14.6614 14.5188Z" fill="#00C0F1"/>
<path d="M19.7675 9.48001L14.6617 14.515L0.776367 0.723398C0.948799 0.570254 1.12135 0.451185 1.31108 0.332117C2.13897 -0.127089 3.12222 -0.110136 3.93297 0.383203L12.9368 5.60185L19.7675 9.48001Z" fill="#7FE881"/>
<path d="M19.7672 9.48461L14.6614 14.5195L12.9365 12.8186V5.60645L19.7672 9.48461Z" fill="#5BC980"/>
<path d="M19.7675 19.5539L12.9368 23.4322L3.91572 28.6258C3.50175 28.8639 3.05328 29 2.5875 29C2.15628 29 1.72506 28.8809 1.31108 28.6598C1.12135 28.5407 0.948799 28.4217 0.776367 28.2686L14.6617 14.519L19.7675 19.5539Z" fill="#FF637B"/>
<path d="M19.7672 19.5539L12.9365 23.4321V16.22L14.6614 14.519L19.7672 19.5539Z" fill="#E63950"/>
</svg>
