<svg width="12" height="20" viewBox="0 0 12 20" fill="none" xmlns="http://www.w3.org/2000/svg">
<path d="M10.999 0.00416134L8.40546 0C5.49172 0 3.60874 1.9319 3.60874 4.92203V7.19141H1.00107C0.775734 7.19141 0.593262 7.37409 0.593262 7.59943V10.8875C0.593262 11.1128 0.775943 11.2953 1.00107 11.2953H3.60874V19.5922C3.60874 19.8175 3.79121 20 4.01655 20H7.41882C7.64415 20 7.82662 19.8173 7.82662 19.5922V11.2953H10.8756C11.1009 11.2953 11.2834 11.1128 11.2834 10.8875L11.2847 7.59943C11.2847 7.49123 11.2416 7.38762 11.1652 7.31105C11.0889 7.23448 10.9848 7.19141 10.8766 7.19141H7.82662V5.26763C7.82662 4.34298 8.04696 3.87358 9.25145 3.87358L10.9986 3.87295C11.2237 3.87295 11.4062 3.69027 11.4062 3.46514V0.411972C11.4062 0.187052 11.2239 0.00457747 10.999 0.00416134Z" fill="#A8A8A8"/>
</svg>
