<svg width="1920" height="301" viewBox="0 0 1920 301" fill="none" xmlns="http://www.w3.org/2000/svg">
<rect width="1920" height="301" fill="url(#paint0_linear)"/>
<path fill-rule="evenodd" clip-rule="evenodd" d="M26.1074 0C128.267 46.5023 350.585 104.032 652.5 60.5C1064.61 1.07932 1368.8 123.527 1477.46 167.27C1482.18 169.169 1486.53 170.919 1490.5 172.5C1560.83 200.484 1783 251.245 1920 196.586V0H26.1074Z" fill="url(#paint1_linear)"/>
<path fill-rule="evenodd" clip-rule="evenodd" d="M0.000976562 0C139.696 74.2358 362.223 156.24 565.598 120.26C685.096 99.1188 784.186 58.0629 880.378 18.2077C895.156 12.0846 909.866 5.98985 924.571 0H0.000976562Z" fill="url(#paint2_linear)" fill-opacity="0.4"/>
<defs>
<linearGradient id="paint0_linear" x1="1747.5" y1="1462.7" x2="-238.518" y2="426.585" gradientUnits="userSpaceOnUse">
<stop stop-color="#FFA545"/>
<stop offset="1" stop-color="#FFD076"/>
</linearGradient>
<linearGradient id="paint1_linear" x1="395" y1="593" x2="371" y2="-61.5" gradientUnits="userSpaceOnUse">
<stop stop-color="#FF9B30"/>
<stop offset="1" stop-color="#FF9B30" stop-opacity="0"/>
</linearGradient>
<linearGradient id="paint2_linear" x1="477.457" y1="359.08" x2="492.412" y2="-211.338" gradientUnits="userSpaceOnUse">
<stop offset="0.228159" stop-color="#FFAA18"/>
<stop offset="0.566023" stop-color="white" stop-opacity="0"/>
</linearGradient>
</defs>
</svg>
