<svg width="393" height="426" viewBox="0 0 393 426" fill="none" xmlns="http://www.w3.org/2000/svg">
<g filter="url(#filter0_f)">
<path fill-rule="evenodd" clip-rule="evenodd" d="M350.538 123.045C350.491 123.076 350.442 123.106 350.393 123.135L333.62 132.935L330.672 150.742C330.569 151.359 330.211 151.838 329.74 152.123L329.697 152.36L329.697 152.36C329.697 152.36 329.255 152.556 328.604 152.415C328.212 152.398 327.817 152.263 327.469 151.992L316.132 143.154L296.075 154.873C294.651 155.705 292.824 155.232 291.982 153.815L254 89.8462L356.421 119.61L350.731 123.111L350.538 123.045ZM329.602 152.199L329.689 152.348L329.601 152.2L329.602 152.199Z" fill="#0B0B0B" fill-opacity="0.08"/>
</g>
<path opacity="0.2" fill-rule="evenodd" clip-rule="evenodd" d="M264.097 119.357C300.461 130.543 364.639 114.072 383.653 145.429C402.651 176.759 327.427 197.434 316.8 231.098C306.962 262.26 348.987 320.759 318.717 336.224C288.521 351.651 281.008 321.512 246.707 314.064C208.717 305.815 31.3886 362.477 12.3729 330.226C-6.70782 297.865 55.7403 201.501 64.0338 166.238C72.8672 128.68 49.8707 84.4458 84.0259 63.7726C117.864 43.2914 224.751 107.253 264.097 119.357Z" fill="url(#paint0_linear)"/>
<path d="M240.29 190.124C233.639 197.365 233.387 214.085 235.827 216.077C238.267 218.069 240.695 193.136 245.444 190.262C250.193 187.387 260.476 187.921 260.476 187.921C257.666 189.326 251.185 202.811 253.636 205.921C256.086 209.031 256.81 197.506 262.423 191.082C268.037 184.659 289.479 191.897 289.479 191.897C289.479 191.897 285.528 198.661 287.976 206.301C290.425 213.942 295.512 228.084 286.684 233.918C279.86 238.428 261.423 226.151 262.411 227.883C263.4 229.615 278.19 242.059 287.17 237.737C287.17 237.737 278.936 258.576 266.636 256.212C254.336 253.847 244.38 245.442 244.241 248.103C244.102 250.764 260.936 261.27 272.491 257.755C272.491 257.755 251.65 284.303 232.423 274.803C213.151 265.359 221.16 245.815 221.16 245.815C200.189 242.754 196.431 227.662 202.69 213.997C208.194 201.935 240.29 190.124 240.29 190.124ZM265.267 242.608C265.686 243.227 267.642 245.472 268.498 245.894C269.632 246.542 270.514 245.689 270.246 244.545C269.827 242.908 269.261 241.337 267.795 241.435C266.218 241.443 264.793 241.944 265.267 242.608ZM236.293 251.048C238.32 253.998 243.579 260.233 245.765 260.724C247.428 261.064 248.44 259.485 248.5 259.072C248.811 257.106 247.843 255.575 244.753 253.701C241.618 251.881 238.657 246.227 237.403 246.405C236.149 246.583 234.265 248.098 236.293 251.048ZM252.836 231.35C252.575 232.801 256.648 236.867 257.969 237.852C259.844 239.291 261.675 242.82 263.169 239.971C264.015 238.256 261.302 235.58 258.445 233.987C255.532 232.348 253.097 229.898 252.836 231.35ZM265.536 205.832C266.372 205.035 266.865 203.865 266.974 201.919C267.103 198.14 266.436 195.561 264.901 198.007C263.366 200.454 261.287 203.566 261.555 204.709C261.984 206.447 264.237 207.084 265.536 205.832ZM223.76 223.614C226.828 230.835 228.434 236.678 230.638 232.281C230.638 232.281 231.967 230.314 229.904 226.502C227.841 222.691 228.827 220.351 227.319 218.01C225.71 215.679 220.693 216.393 223.76 223.614ZM220.619 211.616C222.46 214.228 222.768 215.775 224.083 215.183C224.858 214.799 225.336 213.987 225.401 213.115C225.43 211.382 224.553 209.74 223.958 208.884C223.075 207.702 218.249 208.294 220.619 211.616Z" fill="white"/>
<path d="M248.295 259.551C249.449 260.401 250.649 261.196 251.748 262C252.292 262.352 251.668 263.23 251.169 262.822C249.969 262.028 248.759 261.133 247.605 260.283C247.887 260.051 248.114 259.773 248.295 259.551Z" fill="#ECF1FA"/>
<path d="M232.436 239.021C232.426 238.92 232.426 238.92 232.416 238.819C232.406 238.719 232.406 238.719 232.451 238.663C231.462 236.931 230.529 235.245 229.687 233.447C229.923 233.27 230.15 232.993 230.412 232.559C231.375 234.548 232.384 236.481 233.483 238.304C235.105 237.223 236.727 236.142 238.338 234.96C241.989 232.299 245.363 229.412 248.681 226.479C244.797 218.221 244.584 208.521 248.005 200.029C248.246 199.394 249.204 199.806 248.962 200.441C245.657 208.564 245.875 217.806 249.472 225.737C253.626 222.006 257.558 218.095 261.647 214.219C261.575 211.477 261.961 208.741 262.715 206.119C263.037 206.29 263.35 206.36 263.662 206.43C263.069 208.628 262.688 210.906 262.619 213.255C265.962 210.065 269.305 206.875 272.76 203.776C277.805 199.293 283.148 195.238 288.899 191.702C289.277 191.918 289.434 191.953 289.434 191.953C289.434 191.953 289.217 192.332 288.93 193.022C279.387 198.827 271.199 206.479 263.179 214.267C267.613 215.852 272.339 216.288 277.055 215.606C277.704 215.489 277.861 216.542 277.211 216.659C272.249 217.417 267.155 216.866 262.454 215.155L262.398 215.109C261.144 216.306 259.891 217.502 258.692 218.743C253.451 223.806 248.154 228.823 242.448 233.321C247.868 239.133 254.713 243.426 262.261 245.611C262.941 245.797 262.529 246.755 261.849 246.57C254.088 244.304 247.077 239.875 241.547 233.973C241.502 234.028 241.502 234.028 241.456 234.084C238.908 236.073 236.295 237.916 233.615 239.614C233.944 242.38 234.858 244.883 236.154 247.143C235.872 247.376 235.656 247.754 235.54 248.122C234.078 245.726 233.098 243.076 232.658 240.22C229.123 242.513 225.522 244.66 221.987 246.954C221.559 247.251 221.03 247.56 220.602 247.858C220.833 247.122 220.984 246.597 221.11 246.33C224.872 243.759 228.709 241.435 232.436 239.021Z" fill="#ECF1FA"/>
<path d="M224.028 215.139C224.219 215.017 224.365 214.952 224.501 214.785C224.617 215.435 224.789 216.13 224.961 216.825C224.603 216.811 224.256 216.897 223.974 217.129C223.812 216.535 223.696 215.885 223.579 215.235C223.68 215.225 223.882 215.204 224.028 215.139Z" fill="#ECF1FA"/>
<path d="M268.775 196.546C268.095 197.378 267.426 198.311 266.857 199.234C266.796 198.63 266.7 198.181 266.559 197.789C267.002 197.133 267.455 196.578 267.953 195.967C268.351 195.367 269.228 195.991 268.775 196.546Z" fill="#ECF1FA"/>
<circle cx="353" cy="241" r="19" fill="#F0F4FC"/>
<circle cx="224.987" cy="382.444" r="43.5556" fill="#F7F9FE"/>
<path d="M107.131 119.114C107.265 119.107 107.525 118.959 107.658 118.952C107.658 118.952 107.658 118.952 107.792 118.946C107.925 118.939 108.186 118.791 108.319 118.784C108.453 118.778 108.713 118.63 108.846 118.623L108.98 118.616C109.114 118.609 109.374 118.462 109.507 118.455C109.507 118.455 109.507 118.455 109.641 118.448C109.774 118.441 110.035 118.294 110.168 118.287C110.302 118.28 110.562 118.133 110.695 118.126C110.695 118.126 110.695 118.126 110.829 118.119C110.963 118.112 111.089 117.972 111.356 117.958C111.356 117.958 111.356 117.958 111.49 117.951C111.623 117.944 111.75 117.804 112.01 117.657C112.137 117.516 112.27 117.509 112.531 117.362C112.657 117.222 112.791 117.215 112.917 117.075C112.917 117.075 112.917 117.075 113.051 117.068C113.178 116.927 113.311 116.92 113.438 116.78C113.564 116.64 113.698 116.633 113.825 116.492C113.951 116.352 114.085 116.345 114.211 116.205C114.338 116.064 114.472 116.057 114.598 115.917C114.858 115.77 115.112 115.489 115.372 115.342C115.498 115.202 115.632 115.195 115.759 115.054C116.019 114.907 116.272 114.626 116.525 114.346C116.652 114.205 116.779 114.065 116.912 114.058C117.039 113.918 117.165 113.777 117.165 113.777C117.419 113.497 117.545 113.356 117.799 113.076C117.925 112.935 117.918 112.802 118.052 112.795C118.172 112.521 118.432 112.374 118.552 112.1C118.678 111.96 118.671 111.826 118.805 111.82C119.058 111.539 119.171 111.132 119.291 110.858C119.41 110.584 119.523 110.177 119.509 109.91C119.502 109.777 119.495 109.643 119.495 109.643C119.482 109.376 119.475 109.243 119.461 108.976C119.454 108.843 119.454 108.843 119.447 108.709C119.111 107.389 117.987 106.377 115.822 105.954C105.801 103.798 95.5115 111.957 91.7976 115.227C92.3616 113.191 91.6089 114.166 92.1729 112.13C91.5259 112.565 93.9637 105.349 94.2951 103.994C95.3747 98.9879 96.9469 93.1541 98.16 88.1415L98.3005 88.2679C98.441 88.3944 98.715 88.514 98.8555 88.6405C98.9959 88.767 99.1295 88.7601 99.1364 88.8935C99.2769 89.02 99.4174 89.1465 99.6844 89.1326C99.8249 89.2591 99.9585 89.2522 99.9585 89.2522C100.099 89.3787 100.232 89.3718 100.373 89.4983C100.507 89.4913 100.647 89.6178 100.781 89.6109C100.921 89.7374 101.055 89.7305 101.195 89.8569C101.329 89.85 101.469 89.9765 101.603 89.9696C101.743 90.0961 101.877 90.0892 102.017 90.2157C102.151 90.2087 102.291 90.3352 102.425 90.3283C102.565 90.4548 102.699 90.4479 102.973 90.5674C103.106 90.5605 103.247 90.687 103.247 90.687C103.387 90.8135 103.521 90.8066 103.788 90.7927C103.921 90.7858 103.928 90.9192 104.062 90.9123C104.202 91.0388 104.469 91.0249 104.603 91.018C104.737 91.0111 104.737 91.0111 104.877 91.1376C105.151 91.2571 105.418 91.2433 105.692 91.3629C105.966 91.4824 106.233 91.4686 106.5 91.4547C106.634 91.4478 106.634 91.4478 106.767 91.4409C106.901 91.4339 107.175 91.5535 107.309 91.5466C107.442 91.5397 107.576 91.5327 107.576 91.5327C107.709 91.5258 107.843 91.5189 108.117 91.6385C108.25 91.6315 108.384 91.6246 108.384 91.6246C108.517 91.6177 108.651 91.6108 108.925 91.7303C109.059 91.7234 109.192 91.7165 109.192 91.7165C109.326 91.7096 109.459 91.7026 109.593 91.6957C109.726 91.6888 109.86 91.6819 109.86 91.6819C109.993 91.6749 110.127 91.668 110.261 91.6611C110.394 91.6542 110.528 91.6472 110.528 91.6472C110.661 91.6403 110.795 91.6334 111.062 91.6195C111.195 91.6126 111.195 91.6126 111.329 91.6057C111.463 91.5988 111.73 91.5849 111.863 91.578C111.997 91.5711 111.997 91.5711 112.13 91.5641C112.264 91.5572 112.531 91.5434 112.664 91.5364L112.798 91.5295C113.065 91.5157 113.332 91.5018 113.599 91.488C113.599 91.488 113.599 91.488 113.733 91.481C114 91.4672 114.134 91.4603 114.401 91.4464C114.534 91.4395 114.534 91.4395 114.668 91.4326C114.801 91.4256 114.935 91.4187 115.202 91.4049C115.336 91.3979 115.336 91.3979 115.469 91.391C115.603 91.3841 115.736 91.3772 115.863 91.2368C115.996 91.2299 115.996 91.2299 116.13 91.223C116.263 91.2161 116.397 91.2091 116.524 91.0688C116.657 91.0619 116.657 91.0619 116.791 91.0549C116.924 91.048 117.058 91.0411 117.184 90.9007C117.318 90.8938 117.318 90.8938 117.445 90.7535C117.578 90.7465 117.705 90.6062 117.838 90.5993C117.972 90.5924 117.972 90.5924 118.099 90.452C118.232 90.4451 118.359 90.3047 118.492 90.2978C118.626 90.2909 118.626 90.2909 118.753 90.1506C118.886 90.1436 119.013 90.0033 119.146 89.9964C119.28 89.9894 119.28 89.9894 119.406 89.8491C119.54 89.8422 119.667 89.7018 119.8 89.6949C119.8 89.6949 119.934 89.688 119.927 89.5546C120.187 89.4073 120.321 89.4004 120.581 89.2531C120.714 89.2462 120.714 89.2462 120.707 89.1128C120.841 89.1058 120.968 88.9655 121.101 88.9586C121.235 88.9517 121.228 88.8182 121.361 88.8113C121.495 88.8044 121.621 88.664 121.621 88.664C121.755 88.6571 121.748 88.5237 121.882 88.5168C122.015 88.5098 122.142 88.3695 122.142 88.3695C122.275 88.3626 122.268 88.2292 122.402 88.2222C122.536 88.2153 122.529 88.0819 122.662 88.075C122.796 88.0681 122.789 87.9346 122.922 87.9277C123.056 87.9208 123.049 87.7874 123.183 87.7804C123.316 87.7735 123.309 87.6401 123.443 87.6332C123.576 87.6263 123.569 87.4928 123.703 87.4859C123.836 87.479 123.83 87.3456 123.963 87.3386C124.097 87.3317 124.09 87.1983 124.223 87.1914C124.357 87.1844 124.35 87.051 124.483 87.0441C124.617 87.0372 124.61 86.9038 124.744 86.8968C124.877 86.8899 124.87 86.7565 125.004 86.7496L125.13 86.6092C125.384 86.3285 125.771 86.0409 126.024 85.7603L126.15 85.6199C126.277 85.4796 126.277 85.4796 126.404 85.3392L126.53 85.1989C126.657 85.0586 126.657 85.0586 126.784 84.9182L126.91 84.7779C126.903 84.6445 127.037 84.6375 127.03 84.5041L127.157 84.3638C127.15 84.2303 127.283 84.2234 127.276 84.09L127.403 83.9497C127.396 83.8162 127.53 83.8093 127.523 83.6759C127.523 83.6759 127.516 83.5425 127.649 83.5356C127.642 83.4021 127.776 83.3952 127.769 83.2618C127.769 83.2618 127.762 83.1284 127.896 83.1215C127.889 82.988 128.022 82.9811 128.015 82.8477L128.008 82.7143C128.002 82.5809 128.135 82.5739 128.128 82.4405C128.248 82.1668 128.361 81.7596 128.347 81.4928C128.347 81.4928 128.347 81.4928 128.34 81.3593C128.333 81.2259 128.333 81.2259 128.326 81.0925L128.319 80.9591C128.312 80.8257 128.312 80.8257 128.305 80.6923L128.298 80.5588C128.292 80.4254 128.292 80.4254 128.285 80.292L128.278 80.1586C128.271 80.0252 128.271 80.0252 128.264 79.8917L128.257 79.7583C128.25 79.6249 128.25 79.6249 128.243 79.4915L128.236 79.3581C128.229 79.2247 128.229 79.2247 128.089 79.0982L128.082 78.9648C128.075 78.8313 127.941 78.8383 127.934 78.7048C127.934 78.7048 127.934 78.7048 127.928 78.5714C127.492 77.9251 126.656 77.2996 125.56 76.8213C116.391 73.0159 102.551 82.429 98.2957 85.5927C99.1843 82.0684 100.08 78.6776 101.109 75.2799L101.102 75.1465C101.095 75.013 101.222 74.8727 101.222 74.8727L101.926 72.9633C103.314 68.7443 105.103 64.5045 107.039 60.5246C107.587 60.7637 108.135 61.0028 108.95 61.2281C109.084 61.2212 109.091 61.3546 109.224 61.3477C109.632 61.4603 109.906 61.5799 110.314 61.6926C110.447 61.6856 110.454 61.819 110.588 61.8121C110.862 61.9317 110.995 61.9248 111.269 62.0443C111.403 62.0374 111.543 62.1639 111.81 62.1501C111.944 62.1431 112.084 62.2696 112.218 62.2627C112.625 62.3753 113.167 62.4811 113.574 62.5937C113.848 62.7133 114.115 62.6994 114.256 62.8259C117.376 63.6006 121.016 64.0807 124.749 63.7534C124.882 63.7464 125.15 63.7326 125.283 63.7257L125.417 63.7187C125.55 63.7118 125.684 63.7049 125.817 63.698L125.951 63.691C126.084 63.6841 126.351 63.6703 126.485 63.6633C126.485 63.6633 126.485 63.6633 126.619 63.6564C126.752 63.6495 126.886 63.6426 127.019 63.6356L127.153 63.6287C127.286 63.6218 127.42 63.6149 127.553 63.6079L127.687 63.601C127.821 63.5941 127.954 63.5872 128.214 63.4399L128.348 63.433C128.481 63.426 128.615 63.4191 128.742 63.2788L128.875 63.2719C129.009 63.2649 129.142 63.258 129.269 63.1177C129.402 63.1107 129.529 62.9704 129.663 62.9635L129.796 62.9566C129.93 62.9496 130.063 62.9427 130.19 62.8024L130.323 62.7954C130.457 62.7885 130.584 62.6482 130.717 62.6412C130.851 62.6343 130.977 62.494 131.111 62.4871C131.111 62.4871 131.111 62.4871 131.244 62.4801C131.378 62.4732 131.505 62.3329 131.638 62.3259C131.772 62.319 131.898 62.1787 132.032 62.1717C132.165 62.1648 132.292 62.0245 132.292 62.0245C132.292 62.0245 132.292 62.0245 132.426 62.0175C132.559 62.0106 132.686 61.8703 132.819 61.8634C132.953 61.8564 133.08 61.7161 133.213 61.7092C133.347 61.7022 133.34 61.5688 133.473 61.5619C133.733 61.4146 133.86 61.2743 133.987 61.134C134.12 61.127 134.113 60.9936 134.247 60.9867C134.374 60.8463 134.5 60.706 134.627 60.5657C134.753 60.4253 134.88 60.285 135.007 60.1446C135 60.0112 135.133 60.0043 135.126 59.8709C135.253 59.7305 135.246 59.5971 135.366 59.3234C135.359 59.1899 135.359 59.1899 135.352 59.0565C135.345 58.9231 135.331 58.6563 135.324 58.5229C135.255 57.1887 133.844 55.7903 130.836 54.6085C123.592 51.7735 111.962 57.3263 107.532 59.6964C109.355 56.1237 111.446 52.5371 113.677 49.077L115.049 47.133C115.549 46.4382 115.922 45.8838 116.421 45.189C118.3 42.6836 120.312 40.1713 122.331 37.7924C122.472 37.9189 122.605 37.912 122.746 38.0385C122.88 38.0316 122.886 38.165 123.02 38.1581C123.16 38.2845 123.434 38.4041 123.708 38.5237C124.397 38.8893 125.219 39.248 126.189 39.8666C126.463 39.9862 126.877 40.2322 127.285 40.3449C127.425 40.4714 127.692 40.4575 127.833 40.584C129.758 41.5544 132.09 42.6374 134.831 43.8331C134.964 43.8262 135.105 43.9527 135.238 43.9458L135.372 43.9388C135.505 43.9319 135.512 44.0653 135.646 44.0584L135.779 44.0515C135.913 44.0446 135.92 44.178 136.053 44.1711L136.187 44.1641C136.32 44.1572 136.32 44.1572 136.461 44.2837L136.594 44.2768C136.728 44.2698 136.728 44.2698 136.868 44.3963L137.002 44.3894C137.135 44.3825 137.135 44.3825 137.276 44.509L137.41 44.5021C137.543 44.4951 137.543 44.4951 137.684 44.6216L137.817 44.6147C137.951 44.6078 138.084 44.6008 138.091 44.7343C138.091 44.7343 138.091 44.7343 138.225 44.7273C138.358 44.7204 138.499 44.8469 138.632 44.84L138.766 44.8331C138.899 44.8261 138.899 44.8261 139.04 44.9526L139.173 44.9457C139.307 44.9388 139.307 44.9388 139.44 44.9319L139.574 44.9249C139.708 44.918 139.708 44.918 139.841 44.9111L139.975 44.9042C140.108 44.8972 140.108 44.8972 140.242 44.8903L140.375 44.8834C140.509 44.8765 140.509 44.8765 140.642 44.8695L140.776 44.8626C140.91 44.8557 140.91 44.8557 141.043 44.8488L141.177 44.8418C141.31 44.8349 141.31 44.8349 141.444 44.828L141.577 44.8211C141.711 44.8141 141.844 44.8072 141.978 44.8003L142.111 44.7934C142.245 44.7864 142.245 44.7864 142.379 44.7795L142.512 44.7726C142.646 44.7657 142.646 44.7657 142.779 44.7587L142.913 44.7518C143.046 44.7449 143.046 44.7449 143.18 44.738L143.313 44.731C143.447 44.7241 143.447 44.7241 143.581 44.7172L143.714 44.7103L143.848 44.7033L143.981 44.6964L144.115 44.6895L144.248 44.6826L144.382 44.6756L144.515 44.6687L144.649 44.6618C144.783 44.6549 144.916 44.6479 145.05 44.641L145.183 44.6341C145.317 44.6272 145.317 44.6272 145.45 44.6202L145.584 44.6133C145.717 44.6064 145.717 44.6064 145.851 44.5995L145.984 44.5925C146.118 44.5856 146.118 44.5856 146.252 44.5787L146.385 44.5718C146.519 44.5648 146.519 44.5648 146.652 44.5579L146.786 44.551C146.919 44.5441 146.919 44.5441 147.053 44.5371L147.186 44.5302C147.32 44.5233 147.32 44.5233 147.454 44.5164L147.587 44.5094C147.721 44.5025 147.721 44.5025 147.847 44.3622C148.107 44.2149 148.375 44.2011 148.635 44.0538C148.768 44.0469 148.768 44.0469 148.895 43.9065C148.895 43.9065 148.895 43.9065 149.028 43.8996C149.162 43.8927 149.162 43.8927 149.155 43.7593C149.155 43.7593 149.155 43.7593 149.289 43.7523L149.415 43.612C149.415 43.612 149.415 43.612 149.549 43.6051L149.675 43.4647C149.675 43.4647 149.675 43.4647 149.809 43.4578L149.936 43.3175L150.062 43.1771C150.316 42.8964 150.576 42.7492 150.829 42.4685L150.956 42.3281L151.082 42.1878L151.209 42.0475L151.336 41.9071L151.462 41.7668C151.582 41.493 151.702 41.2193 151.814 40.8121C151.807 40.6787 151.807 40.6787 151.801 40.5452C151.794 40.4118 151.794 40.4118 151.787 40.2784C151.78 40.145 151.78 40.145 151.773 40.0116C151.773 40.0116 151.773 40.0116 151.766 39.8782C151.759 39.7447 151.759 39.7447 151.752 39.6113C151.745 39.4779 151.745 39.4779 151.738 39.3445C151.697 38.544 151.522 37.7504 150.939 36.8442C146.616 28.3729 128.723 34.5179 122.691 36.9711C126.11 33.1819 129.81 29.6457 133.798 26.4958L136.492 24.2157C138.806 22.3567 141.26 20.6241 143.721 19.0249C143.721 19.0249 143.721 19.0249 143.855 19.018C143.988 19.0111 144.263 19.1306 144.396 19.1237C144.396 19.1237 144.396 19.1237 144.53 19.1168C144.663 19.1099 144.937 19.2294 145.071 19.2225C145.204 19.2156 145.478 19.3352 145.612 19.3282L145.745 19.3213C145.879 19.3144 146.146 19.3005 146.287 19.427L146.42 19.4201C146.554 19.4132 146.821 19.3993 146.954 19.3924C147.088 19.3855 147.355 19.3716 147.488 19.3647C147.488 19.3647 147.488 19.3647 147.622 19.3578C147.756 19.3508 148.023 19.337 148.156 19.3301L148.29 19.3232C148.423 19.3162 148.69 19.3024 148.824 19.2955C148.824 19.2955 148.824 19.2955 148.958 19.2885C149.091 19.2816 149.358 19.2678 149.492 19.2608C149.625 19.2539 149.892 19.2401 150.026 19.2331L150.16 19.2262C150.293 19.2193 150.56 19.2054 150.687 19.0651L150.82 19.0582C150.954 19.0512 151.221 19.0374 151.348 18.897C151.481 18.8901 151.741 18.7429 151.875 18.7359C151.875 18.7359 151.875 18.7359 152.008 18.729C152.142 18.7221 152.402 18.5748 152.536 18.5679L152.669 18.561C152.803 18.554 153.063 18.4068 153.197 18.3998C153.197 18.3998 153.197 18.3998 153.33 18.3929C153.464 18.386 153.724 18.2387 153.857 18.2318C153.991 18.2249 154.251 18.0776 154.385 18.0707L154.518 18.0638C154.652 18.0568 154.912 17.9096 155.046 17.9026L155.179 17.8957C155.313 17.8888 155.573 17.7415 155.699 17.6012C155.826 17.4608 156.093 17.447 156.22 17.3067C156.22 17.3067 156.22 17.3067 156.353 17.2997C156.48 17.1594 156.747 17.1455 156.874 17.0052L157.007 16.9983C157.134 16.8579 157.401 16.8441 157.528 16.7037C157.528 16.7037 157.528 16.7037 157.661 16.6968C157.788 16.5565 158.055 16.5426 158.182 16.4023C158.308 16.2619 158.575 16.2481 158.702 16.1078C158.702 16.1078 158.702 16.1078 158.836 16.1008C159.757 15.7855 159.883 15.6452 160.017 15.6383L160.15 15.6313C160.277 15.491 160.544 15.4771 160.671 15.3368C160.797 15.1965 161.064 15.1826 161.191 15.0423C161.318 14.9019 161.578 14.7547 161.711 14.7477C161.711 14.7477 161.711 14.7477 161.845 14.7408C162.091 14.3267 162.218 14.1864 162.345 14.046C162.345 14.046 162.345 14.046 162.478 14.0391C162.605 13.8987 162.731 13.7584 162.999 13.7446C163.125 13.6042 163.252 13.4639 163.378 13.3235C163.378 13.3235 163.378 13.3235 163.512 13.3166C163.639 13.1763 163.765 13.0359 163.892 12.8956C163.892 12.8956 163.892 12.8956 164.025 12.8887C164.152 12.7483 164.279 12.608 164.405 12.4676C164.665 12.3204 164.792 12.18 164.919 12.0397C165.045 11.8993 165.312 11.8855 165.439 11.7451C165.439 11.7451 165.439 11.7451 165.573 11.7382C165.559 11.4714 165.692 11.4645 165.819 11.3241C166.072 11.0434 166.199 10.9031 166.332 10.8962C166.459 10.7558 166.586 10.6155 166.712 10.4751C166.839 10.3348 166.966 10.1945 167.092 10.0541C167.212 9.78036 167.346 9.77344 167.472 9.6331C167.592 9.35934 167.719 9.21899 167.852 9.21207C167.979 9.07173 168.105 8.93139 168.098 8.79797C168.218 8.52421 168.352 8.51729 168.478 8.37694C168.598 8.10318 168.725 7.96284 168.725 7.96284C168.851 7.8225 168.978 7.68216 168.971 7.54874C169.098 7.4084 169.224 7.26806 169.217 7.13464C169.344 6.9943 169.471 6.85396 169.464 6.72054C169.583 6.44678 169.703 6.17302 169.823 5.89926C169.816 5.76584 169.943 5.6255 169.943 5.6255C169.936 5.49209 170.062 5.35174 170.062 5.35174C170.055 5.21833 170.048 5.08491 170.182 5.07799C170.175 4.94457 170.168 4.81115 170.168 4.81115C170.161 4.67773 170.154 4.54432 170.154 4.54432C170.141 4.27748 170.134 4.14407 170.12 3.87723C170.113 3.74381 170.113 3.74381 170.106 3.6104C170.099 3.47698 170.099 3.47698 169.959 3.35049C169.952 3.21707 169.952 3.21707 169.811 3.09058C169.804 2.95716 169.671 2.96409 169.664 2.83067C169.657 2.69725 169.523 2.70418 169.516 2.57076C169.509 2.43734 169.376 2.44427 169.235 2.31777C168.505 1.15164 167.009 0.694149 164.731 0.678453C151.482 0.830338 145.132 12.6643 143.217 17.0444C140.629 18.7839 138.174 20.5165 135.727 22.3825L134.44 23.3857C130.325 26.6759 126.499 30.3525 122.946 34.1486C125.179 28.1467 129.746 12.927 122.764 7.40287C120.825 6.16564 119.195 5.71507 117.874 6.05115C117.48 6.20535 117.086 6.35954 116.692 6.51373C116.306 6.80134 116.052 7.08202 115.665 7.36963C115.412 7.65031 115.032 8.07134 114.786 8.48544C114.793 8.61886 114.659 8.62578 114.666 8.7592C114.553 9.16638 114.307 9.58048 114.194 9.98765C114.201 10.1211 114.068 10.128 114.075 10.2614C113.955 10.5352 113.835 10.8089 113.722 11.2161C113.729 11.3495 113.729 11.3495 113.603 11.4899C113.603 11.4899 113.603 11.4899 113.609 11.6233C113.616 11.7567 113.616 11.7567 113.49 11.897C113.49 11.897 113.49 11.897 113.497 12.0305C113.377 12.3042 113.398 12.7045 113.278 12.9782L113.285 13.1116C113.292 13.2451 113.292 13.2451 113.299 13.3785L113.306 13.5119C113.313 13.6453 113.313 13.6453 113.32 13.7787L113.326 13.9121C113.333 14.0456 113.333 14.0456 113.34 14.179L113.347 14.3124C113.354 14.4458 113.361 14.5792 113.241 14.853L113.248 14.9864C113.255 15.1198 113.255 15.1198 113.262 15.2532C113.269 15.3867 113.269 15.3867 113.276 15.5201C113.283 15.6535 113.283 15.6535 113.29 15.7869C113.297 15.9203 113.297 15.9203 113.304 16.0537C113.31 16.1872 113.31 16.1872 113.317 16.3206C113.324 16.454 113.331 16.5874 113.331 16.5874C113.338 16.7208 113.338 16.7208 113.345 16.8542C113.352 16.9877 113.352 16.9877 113.359 17.1211C113.366 17.2545 113.366 17.2545 113.373 17.3879C113.38 17.5213 113.38 17.5213 113.387 17.6547C113.394 17.7882 113.394 17.7882 113.4 17.9216C113.407 18.055 113.407 18.055 113.414 18.1884L113.421 18.3218C113.428 18.4553 113.435 18.5887 113.442 18.7221L113.449 18.8555C113.456 18.9889 113.463 19.1223 113.47 19.2558L113.477 19.3892C113.483 19.5226 113.483 19.5226 113.49 19.656L113.497 19.7894C113.504 19.9228 113.511 20.0563 113.511 20.0563L113.518 20.1897C113.525 20.3231 113.532 20.4565 113.539 20.5899C113.539 20.5899 113.539 20.5899 113.546 20.7233C113.553 20.8568 113.56 20.9902 113.566 21.1236L113.573 21.257C113.58 21.3904 113.587 21.5238 113.587 21.5238L113.594 21.6573C113.601 21.7907 113.608 21.9241 113.608 21.9241L113.615 22.0575C113.622 22.1909 113.629 22.3243 113.769 22.4508C113.776 22.5843 113.783 22.7177 113.923 22.8442L113.93 22.9776C113.937 23.111 113.944 23.2444 114.078 23.2375L114.085 23.3709C114.092 23.5043 114.099 23.6377 114.232 23.6308L114.239 23.7642C114.246 23.8977 114.386 24.0241 114.393 24.1576C114.4 24.291 114.541 24.4175 114.548 24.5509L114.555 24.6843C114.561 24.8177 114.568 24.9511 114.702 24.9442L114.709 25.0776C114.716 25.2111 114.849 25.2041 114.856 25.3375L114.863 25.471C114.87 25.6044 115.011 25.7309 115.017 25.8643C115.929 27.9574 116.814 29.5169 117.691 30.9429C117.979 31.3293 118.133 31.7226 118.281 31.9825C118.435 32.3759 118.716 32.6289 118.863 32.8888C119.151 33.2752 119.439 33.6616 119.72 33.9146C119.86 34.041 119.867 34.1745 120.001 34.1675C120.289 34.5539 120.57 34.8069 120.851 35.0599L120.991 35.1864C121.132 35.3129 121.132 35.3129 121.272 35.4394C119.119 37.8252 117.241 40.3306 115.235 42.9763L113.736 45.0607C111.119 48.8083 108.782 52.809 106.712 56.7958C107.041 50.2238 107.007 31.4969 97.7505 31.1742C97.3499 31.195 96.9492 31.2157 96.6821 31.2296C96.5486 31.2365 96.5486 31.2365 96.415 31.2434C96.2815 31.2504 96.2815 31.2504 96.1479 31.2573C96.0144 31.2642 96.0144 31.2642 95.8808 31.2711C95.7473 31.2781 95.7473 31.2781 95.6137 31.285C95.4802 31.2919 95.4802 31.2919 95.3466 31.2988C95.213 31.3058 95.213 31.3058 95.0795 31.3127L94.9459 31.3196L94.8124 31.3265L94.6788 31.3335L94.5453 31.3404C94.5453 31.3404 94.4117 31.3473 94.4187 31.4807C94.4187 31.4807 94.2851 31.4877 94.292 31.6211C94.292 31.6211 94.1585 31.628 94.1654 31.7614C94.1654 31.7614 94.0318 31.7683 94.0388 31.9018C94.0388 31.9018 93.9052 31.9087 93.9121 32.0421C93.9121 32.0421 93.7786 32.049 93.7855 32.1824L93.6589 32.3228L93.5322 32.4631L93.4056 32.6035L93.279 32.7438L93.1523 32.8842L93.0257 33.0245L92.8991 33.1648C92.16 34.4071 92.1164 36.1485 92.4803 38.0025C92.4873 38.1359 92.4873 38.1359 92.4942 38.2693C92.5011 38.4027 92.5011 38.4027 92.508 38.5361C92.5149 38.6696 92.5149 38.6696 92.5218 38.803C92.5288 38.9364 92.5288 38.9364 92.5357 39.0698C92.5426 39.2032 92.5426 39.2032 92.5495 39.3367C92.5564 39.4701 92.5564 39.4701 92.5634 39.6035C92.5703 39.7369 92.5703 39.7369 92.5772 39.8703C92.5841 40.0037 92.5841 40.0037 92.591 40.1372C92.5979 40.2706 92.5979 40.2706 92.6049 40.404C92.6118 40.5374 92.6118 40.5374 92.7523 40.6639C92.7592 40.7973 92.7592 40.7973 92.8996 40.9238C92.9066 41.0572 92.9066 41.0572 93.047 41.1837C93.0539 41.3171 93.0539 41.3171 93.1944 41.4436C93.2013 41.577 93.2013 41.577 93.3418 41.7035C93.3487 41.8369 93.3487 41.837 93.4892 41.9634C93.4961 42.0969 93.4961 42.0969 93.6366 42.2234C93.6366 42.2234 93.6366 42.2234 93.6435 42.3568C93.6504 42.4902 93.6504 42.4902 93.7909 42.6167C93.7909 42.6167 93.7909 42.6167 93.7978 42.7501C93.8047 42.8835 93.8047 42.8835 93.9452 43.01C93.9452 43.01 93.9452 43.01 93.9521 43.1434C93.959 43.2768 93.959 43.2768 94.0995 43.4033C94.0995 43.4033 94.0995 43.4033 94.1064 43.5367C94.1133 43.6702 94.1133 43.6702 94.2538 43.7967C94.2538 43.7967 94.2538 43.7967 94.2607 43.9301C94.2676 44.0635 94.2676 44.0635 94.4081 44.19C94.4081 44.19 94.4081 44.19 94.415 44.3234C94.4219 44.4568 94.5555 44.4499 94.5624 44.5833C94.5624 44.5833 94.5624 44.5833 94.5693 44.7167C94.5762 44.8501 94.7098 44.8432 94.7167 44.9766C94.7167 44.9766 94.7167 44.9766 94.7236 45.1101C94.7305 45.2435 94.8641 45.2365 94.871 45.37C94.871 45.37 94.871 45.37 94.8779 45.5034C94.8848 45.6368 95.0184 45.6299 95.0253 45.7633C95.0322 45.8967 95.1658 45.8898 95.1727 46.0232C95.1796 46.1566 95.3132 46.1497 95.3201 46.2831C95.327 46.4165 95.4606 46.4096 95.4675 46.543C95.4744 46.6764 95.6079 46.6695 95.6149 46.8029C95.6218 46.9363 95.7553 46.9294 95.7623 47.0628C95.7692 47.1963 95.9027 47.1893 95.9096 47.3227C96.3449 47.9691 96.7801 48.6154 97.2223 49.3951C97.2292 49.5285 97.3627 49.5216 97.3697 49.655C97.3766 49.7884 97.5101 49.7815 97.5171 49.9149C97.5171 49.9149 97.5171 49.9149 97.524 50.0483C97.5309 50.1818 97.6644 50.1748 97.6714 50.3082C97.6714 50.3082 97.6714 50.3082 97.6783 50.4417L97.8187 50.5682L97.8257 50.7016L97.9661 50.8281C97.9661 50.8281 97.9731 50.9615 98.1066 50.9546L98.2471 51.081C98.2471 51.081 98.254 51.2145 98.3875 51.2075L98.528 51.334C98.528 51.334 98.5349 51.4674 98.6685 51.4605L98.809 51.587C98.809 51.587 98.8159 51.7204 98.9494 51.7135L99.0899 51.84C99.0899 51.84 99.0968 51.9734 99.2304 51.9665L99.3708 52.093C99.3708 52.093 99.3777 52.2264 99.5113 52.2195L99.6518 52.346C99.6518 52.346 99.6587 52.4794 99.7922 52.4725L99.9327 52.599C99.9327 52.599 99.9396 52.7324 100.073 52.7254L100.214 52.8519C100.214 52.8519 100.221 52.9854 100.354 52.9784L100.495 53.1049L100.635 53.2314L100.776 53.3579L100.916 53.4844L101.056 53.6109L101.197 53.7374L101.337 53.8639L101.478 53.9904L101.618 54.1169L101.759 54.2434L101.899 54.3698L102.04 54.4963L102.18 54.6228L102.321 54.7493L102.461 54.8758L102.602 55.0023L102.742 55.1288L102.883 55.2553L103.023 55.3818L103.163 55.5083L103.304 55.6348L103.444 55.7613L103.585 55.8878L103.725 56.0142L103.866 56.1407L104.006 56.2672L104.147 56.3937L104.287 56.5202L104.428 56.6467L104.568 56.7732L104.709 56.8997L104.849 57.0262L104.99 57.1527L105.13 57.2792L105.271 57.4057L105.411 57.5322L105.551 57.6586L105.692 57.7851L105.832 57.9116L105.973 58.0381C105.973 58.0381 106.106 58.0312 106.113 58.1646L106.254 58.2911C106.254 58.2911 106.387 58.2842 106.394 58.4176L106.535 58.5441C106.535 58.5441 106.668 58.5372 106.675 58.6706L106.816 58.7971C106.816 58.7971 106.949 58.7902 106.956 58.9236L107.097 59.0501C107.097 59.0501 107.097 59.0501 107.237 59.1766L107.378 59.303C107.378 59.303 107.378 59.3031 107.518 59.4295L107.659 59.556C106.208 62.5743 104.891 65.5857 103.715 68.7235C103.356 69.5448 103.003 70.4995 102.778 71.3138L102.193 72.9494C101.037 76.4875 100.015 80.0187 99.1268 83.543C98.5484 77.553 95.7751 65.3895 84.2088 61.8421C81.8969 61.1593 80.2874 61.109 79.2398 61.5647C79.1062 61.5716 79.1131 61.705 78.9796 61.7119C78.846 61.7189 78.8529 61.8523 78.7194 61.8592C78.5928 61.9996 78.4661 62.1399 78.3395 62.2802C78.3464 62.4137 78.2128 62.4206 78.2198 62.554C78.2267 62.6874 78.0931 62.6943 78.1 62.8278C77.9803 63.1015 77.8606 63.3753 77.8745 63.6421C77.8814 63.7755 77.8883 63.9089 77.8883 63.9089C77.9021 64.1758 77.9229 64.576 77.9436 64.9763C77.9505 65.1097 77.9575 65.2431 77.9644 65.3765C77.9851 65.7768 78.1394 66.1701 78.2937 66.5634C78.3007 66.6969 78.4411 66.8233 78.4481 66.9568C78.455 67.0902 78.5954 67.2167 78.6024 67.3501C78.7497 67.61 78.9041 68.0033 79.0514 68.2632C79.0584 68.3967 79.1988 68.5231 79.2127 68.79C79.2196 68.9234 79.36 69.0499 79.5074 69.3098C79.6548 69.5697 79.8091 69.963 80.097 70.3494C80.2374 70.4759 80.2444 70.6093 80.3918 70.8693C80.5322 70.9957 80.5391 71.1292 80.6865 71.3891C80.8408 71.7824 81.1218 72.0354 81.4096 72.4218C81.5501 72.5483 81.6975 72.8082 81.7044 72.9416C81.7044 72.9416 81.7044 72.9416 81.7113 73.075C81.8518 73.2015 81.9923 73.328 82.0061 73.5948C82.0061 73.5948 82.0061 73.5948 82.013 73.7283C82.1535 73.8548 82.3009 74.1147 82.4413 74.2412C82.5818 74.3676 82.7292 74.6276 82.8697 74.754C83.0101 74.8805 83.1575 75.1404 83.298 75.2669C83.298 75.2669 83.298 75.2669 83.3049 75.4004C83.4454 75.5269 83.5858 75.6533 83.7332 75.9132C83.7332 75.9132 83.7332 75.9133 83.7401 76.0467C83.8806 76.1732 84.0211 76.2997 84.1685 76.5596C84.3089 76.6861 84.4494 76.8125 84.5968 77.0725C84.7373 77.1989 84.8777 77.3254 85.0251 77.5854C85.0251 77.5854 85.0251 77.5853 85.032 77.7188C85.1725 77.8453 85.313 77.9718 85.4604 78.2317C85.4604 78.2317 85.4604 78.2317 85.6008 78.3582C85.7413 78.4847 85.8818 78.6111 86.0292 78.8711C86.1696 78.9975 86.3101 79.124 86.4575 79.3839C86.598 79.5104 86.7384 79.6369 86.8858 79.8968C86.8858 79.8968 86.8858 79.8968 87.0263 80.0233C87.1668 80.1498 87.3072 80.2763 87.4477 80.4028C87.4477 80.4028 87.4477 80.4028 87.5882 80.5293C87.7286 80.6558 87.8691 80.7823 88.0096 80.9088C88.0096 80.9088 88.0096 80.9088 88.15 81.0353C88.2905 81.1618 88.431 81.2883 88.705 81.4078C88.8455 81.5343 88.9859 81.6608 89.26 81.7804C89.26 81.7804 89.26 81.7804 89.3935 81.7734C89.534 81.8999 89.6744 82.0264 89.9485 82.146C89.9485 82.146 89.9485 82.146 90.0889 82.2725C90.2294 82.399 90.3699 82.5255 90.6439 82.645C90.6439 82.645 90.6439 82.645 90.7844 82.7715C90.9248 82.898 91.1988 83.0176 91.3393 83.1441C91.4798 83.2706 91.7538 83.3901 91.8943 83.5166C92.0347 83.6431 92.3088 83.7627 92.4492 83.8892C92.4492 83.8892 92.4492 83.8892 92.5897 84.0157C92.7302 84.1422 93.0042 84.2617 93.1447 84.3882C93.1447 84.3882 93.1447 84.3882 93.2782 84.3813C93.4187 84.5078 93.6927 84.6274 93.8332 84.7539C93.9736 84.8804 94.2477 84.9999 94.3881 85.1264C94.5286 85.2529 94.8026 85.3725 94.9362 85.3656C94.9362 85.3656 94.9362 85.3656 95.0697 85.3586C95.2102 85.4851 95.4842 85.6047 95.6178 85.5978L95.7513 85.5908C95.8918 85.7173 96.1589 85.7035 96.2994 85.83C96.2994 85.83 96.2994 85.83 96.4329 85.823C96.5734 85.9495 96.8405 85.9357 96.9809 86.0622C97.1214 86.1887 97.3885 86.1748 97.529 86.3013C97.529 86.3013 97.529 86.3013 97.6625 86.2944C97.803 86.4209 98.0701 86.407 98.2106 86.5335L98.3441 86.5266C98.4777 86.5197 98.6182 86.6462 98.6182 86.6462C98.3718 87.0602 97.581 92.469 96.3886 97.8819L94.5048 105.454C93.8557 108.431 93.6059 111.362 92.8233 114.346C89.8617 108.881 79.9029 92.4325 73.3174 91.9713C71.3003 91.8083 69.8658 92.5516 69.1337 93.9273C69.014 94.2011 68.8942 94.4749 68.7745 94.7486C68.6548 95.0224 68.5351 95.2961 68.5489 95.563C68.5489 95.563 68.5489 95.563 68.5559 95.6964C68.5628 95.8298 68.4361 95.9701 68.4431 96.1036C68.45 96.237 68.4569 96.3704 68.3372 96.6441C68.3372 96.6441 68.3372 96.6441 68.3441 96.7776C68.351 96.911 68.3579 97.0444 68.3718 97.3112C68.3787 97.4446 68.3856 97.5781 68.3994 97.8449C68.3994 97.8449 68.3994 97.8449 68.4064 97.9783C68.4133 98.1117 68.4271 98.3786 68.434 98.512C68.434 98.512 68.434 98.512 68.4409 98.6454C68.4479 98.7788 68.4548 98.9122 68.4686 99.1791C68.4755 99.3125 68.4894 99.5793 68.4963 99.7127C68.4963 99.7127 68.4963 99.7127 68.5032 99.8462C68.5101 99.9796 68.524 100.246 68.5309 100.38C68.5378 100.513 68.5516 100.78 68.6921 100.907L68.699 101.04C68.7059 101.173 68.8533 101.433 68.8602 101.567C68.8672 101.7 69.0145 101.96 69.0215 102.093L69.0284 102.227C69.1827 102.62 69.337 103.014 69.4913 103.407L69.4982 103.54C69.6387 103.667 69.6525 103.934 69.793 104.06C69.9335 104.187 69.9473 104.453 70.0878 104.58L70.0947 104.713C70.2351 104.84 70.249 105.107 70.3895 105.233C70.3895 105.233 70.3895 105.233 70.3964 105.367C70.5368 105.493 70.5438 105.626 70.6911 105.886L70.6981 106.02C70.8385 106.146 70.9859 106.406 70.9928 106.54C70.9928 106.54 70.9928 106.54 70.9998 106.673C71.1402 106.8 71.1471 106.933 71.2876 107.059C71.2876 107.059 71.2945 107.193 71.4281 107.186C71.5685 107.312 71.7159 107.572 71.8564 107.699C71.8564 107.699 71.8633 107.832 71.9969 107.825C72.1373 107.952 72.2778 108.078 72.2847 108.212C72.2847 108.212 72.2847 108.212 72.4252 108.338C72.5657 108.465 72.7061 108.591 72.8535 108.851C72.8535 108.851 72.8604 108.985 72.994 108.978C73.1345 109.104 73.2749 109.231 73.4154 109.357C73.5559 109.484 73.6963 109.61 73.8368 109.737L73.9773 109.863C74.1177 109.99 74.2582 110.116 74.3987 110.243C74.5392 110.369 74.6796 110.496 74.9536 110.615C74.9536 110.615 75.0872 110.608 75.0941 110.742C75.2346 110.868 75.5086 110.988 75.6491 111.114C81.1779 114.439 86.3359 115.777 89.5688 116.145C90.5106 116.23 91.1852 116.328 91.7263 116.434C90.3728 121.32 89.3257 129.535 87.2836 134.055L85.8582 132.39C85.8651 132.524 85.7385 132.664 85.7385 132.664C85.2527 133.626 84.7738 134.721 84.288 135.682C78.0718 147.509 69.3756 157.993 58.8118 166.033C57.778 166.755 59.063 168.294 60.0899 167.438C69.4932 160.261 77.4642 151.287 83.5032 141.208C84.8547 138.864 86.2062 136.519 87.2836 134.055L85.7385 132.664C87.8933 127.736 89.7189 121.622 91.3188 116.322C91.4592 116.448 91.5997 116.575 91.7333 116.568C91.7333 116.568 91.8668 116.561 91.8737 116.694C92.0142 116.821 92.2882 116.94 92.4287 117.067C92.5692 117.193 92.8432 117.313 92.9836 117.439C92.9836 117.439 92.9836 117.439 93.1172 117.432C93.2577 117.559 93.5317 117.678 93.6652 117.671L93.7988 117.664C93.9393 117.791 94.2133 117.911 94.3468 117.904C94.3468 117.904 94.3468 117.904 94.4804 117.897C94.6209 118.023 94.888 118.009 95.0284 118.136C95.1689 118.262 95.436 118.248 95.5765 118.375L95.71 118.368C95.8505 118.495 96.1176 118.481 96.2581 118.607L96.3916 118.6C96.5321 118.727 96.7992 118.713 96.9396 118.839C97.0732 118.832 97.3472 118.952 97.4808 118.945L97.6143 118.938C97.7479 118.931 98.0219 119.051 98.1554 119.044L98.289 119.037C98.4226 119.03 98.6966 119.15 98.8301 119.143C98.9637 119.136 99.2377 119.255 99.3712 119.248C99.3712 119.248 99.3712 119.248 99.5048 119.241C99.6383 119.235 99.9055 119.221 100.046 119.347L100.179 119.34C100.313 119.333 100.58 119.32 100.714 119.313C100.714 119.313 100.714 119.313 100.847 119.306C100.981 119.299 101.248 119.285 101.381 119.278C101.381 119.278 101.381 119.278 101.515 119.271C101.649 119.264 101.916 119.25 102.049 119.243L102.183 119.236C102.316 119.229 102.583 119.216 102.717 119.209L102.85 119.202C102.984 119.195 103.251 119.181 103.385 119.174C103.518 119.167 103.785 119.153 103.919 119.146L104.052 119.139C104.186 119.133 104.453 119.119 104.587 119.112L104.72 119.105C104.854 119.098 105.121 119.084 105.254 119.077C105.388 119.07 105.655 119.056 105.782 118.916C105.782 118.916 105.782 118.916 105.915 118.909C106.737 119.268 106.864 119.127 107.131 119.114Z" fill="#D3D8E5"/>
<path d="M60.2223 166.12C67.7498 165.427 86.0694 148.232 99.1278 85.0005C100.39 74.3275 103.654 49.7607 148.89 11.9556" stroke="#D3D8E5" stroke-width="4"/>
<g clip-path="url(#clip0)">
<path d="M242.359 174.644L32.9854 175.334L33.3908 296.809C33.3982 299.018 35.195 300.803 37.4042 300.796L238.777 300.132C240.987 300.125 242.771 298.328 242.764 296.119L242.359 174.644Z" fill="#FFB05B"/>
<path d="M242.338 174.627L223.403 186.555L137.888 240.371L52.7758 187.215L33.7461 175.311L52.7046 163.643L98.1909 135.662L137.46 111.453L177.205 135.403L223.332 163.171L242.338 174.627Z" fill="#ED9130"/>
<path d="M223.237 135.238L223.403 186.555L137.888 240.371L52.776 187.215L52.6099 135.804L223.237 135.238Z" fill="white"/>
<path d="M82.293 159.989L114.539 159.871" stroke="#DADFEA" stroke-width="3" stroke-miterlimit="10" stroke-linecap="round"/>
<path d="M82.124 178.305L191.77 177.951" stroke="#DADFEA" stroke-width="3" stroke-miterlimit="10" stroke-linecap="round"/>
<path d="M82.1719 190.916L191.818 190.562" stroke="#DADFEA" stroke-width="3" stroke-miterlimit="10" stroke-linecap="round"/>
<path d="M242.292 174.88L179.453 214.167V300.313H242.764L242.292 174.88Z" fill="white" fill-opacity="0.2"/>
</g>
<path d="M316 117.5L342.847 138.431C344.043 139.364 345.802 138.677 346.05 137.181L351.33 105.288L316 117.5Z" fill="#FFBF7A"/>
<path d="M374.186 99.3483C375.03 99.5934 375.17 100.729 374.412 101.172L305.017 141.719C303.594 142.551 301.766 142.078 300.924 140.661L256 65L374.186 99.3483Z" fill="#FFC78C"/>
<path d="M336.281 123.667L256.463 65.3965L349.146 115.947L345 138.5L336.281 123.667Z" fill="url(#paint1_linear)"/>
<path d="M329 127.5L336 123.5L345 138.5C345 138.5 343.875 139 342.5 138C337 134 329 127.5 329 127.5Z" fill="#F1A85A"/>
<path d="M369.731 104.111L256 65L376.421 99.9942L369.731 104.111Z" fill="white" fill-opacity="0.17"/>
<defs>
<filter id="filter0_f" x="253" y="88.8462" width="104.421" height="67.4373" filterUnits="userSpaceOnUse" color-interpolation-filters="sRGB">
<feFlood flood-opacity="0" result="BackgroundImageFix"/>
<feBlend mode="normal" in="SourceGraphic" in2="BackgroundImageFix" result="shape"/>
<feGaussianBlur stdDeviation="0.5" result="effect1_foregroundBlur"/>
</filter>
<linearGradient id="paint0_linear" x1="719.481" y1="554.825" x2="88.6916" y2="224.79" gradientUnits="userSpaceOnUse">
<stop stop-color="#6289D9"/>
<stop offset="1" stop-color="#DBE7FF"/>
</linearGradient>
<linearGradient id="paint1_linear" x1="327.5" y1="86.5001" x2="308.5" y2="147" gradientUnits="userSpaceOnUse">
<stop stop-color="#FEB362"/>
<stop offset="1" stop-color="#FFBF7A"/>
</linearGradient>
<clipPath id="clip0">
<rect x="32.9868" y="111.453" width="209.778" height="189.333" fill="white"/>
</clipPath>
</defs>
</svg>
