<svg width="66" height="68" viewBox="0 0 66 68" fill="none" xmlns="http://www.w3.org/2000/svg">
<path d="M65.8501 39.9257C65.8501 49.0571 62.9982 56.0191 57.2944 60.8114C51.5906 65.6038 43.4835 68 32.9731 68C22.4627 68 14.3236 65.6038 8.5557 60.8114C2.8519 56.0191 0 49.0571 0 39.9257V2.32123C0 1.03925 1.03655 0 2.3152 0H18.9299C20.2085 0 21.2451 1.03925 21.2451 2.32124V39.6343C21.2451 43.3905 22.2384 46.4019 24.2251 48.6686C26.2119 50.8705 29.0958 51.9714 32.877 51.9714C36.6581 51.9714 39.5421 50.8381 41.5288 48.5714C43.5796 46.3048 44.605 43.3257 44.605 39.6343V2.32123C44.605 1.03925 45.6416 0 46.9202 0H63.5349C64.8135 0 65.8501 1.03925 65.8501 2.32124V39.9257Z" fill="url(#paint0_linear)"/>
<path fill-rule="evenodd" clip-rule="evenodd" d="M21.856 44.2785C24.2956 55.7001 35.1411 64.3103 48.1512 64.3103C49.638 64.3103 51.0966 64.1978 52.5175 63.9816C47.3462 66.6605 40.8313 68 32.9731 68C22.4627 68 14.3236 65.6038 8.5557 60.8114C2.8519 56.0191 0 49.0571 0 39.9257V2.32123C0 1.03925 1.03655 0 2.3152 0H18.9299C20.2085 0 21.2451 1.03925 21.2451 2.32124V39.6343C21.2451 41.335 21.4487 42.8831 21.856 44.2785Z" fill="#282322"/>
<defs>
<linearGradient id="paint0_linear" x1="85.0872" y1="-3.06771e-06" x2="21.2924" y2="55.1909" gradientUnits="userSpaceOnUse">
<stop offset="0.193581" stop-color="#FDA659"/>
<stop offset="0.753634" stop-color="#EB6D26"/>
<stop offset="1" stop-color="#B92100"/>
</linearGradient>
</defs>
</svg>
