<svg width="13" height="17" viewBox="0 0 13 17" fill="none" xmlns="http://www.w3.org/2000/svg">
<mask id="path-1-inside-1" fill="white">
<path fill-rule="evenodd" clip-rule="evenodd" d="M10.9554 4.4547C10.9554 6.91497 8.96092 8.9094 6.50066 8.9094C4.04039 8.9094 2.04596 6.91497 2.04596 4.4547C2.04596 1.99444 4.04039 0 6.50066 0C8.96092 0 10.9554 1.99444 10.9554 4.4547ZM8.4073 9.87637C8.80059 9.72634 9.25411 9.77069 9.5732 10.0452C11.0965 11.3557 13.0003 13.0216 13 16.9411H6.54243H6.45757H0C0 13.0218 1.90378 11.3558 3.42689 10.0453C3.74601 9.77075 4.19962 9.7264 4.59297 9.87641C5.18625 10.1027 5.82893 10.2287 6.5003 10.2338C7.17171 10.2287 7.81411 10.1027 8.4073 9.87637Z"/>
</mask>
<path d="M9.5732 10.0452L8.59493 11.1823H8.59494L9.5732 10.0452ZM8.4073 9.87637L8.94192 11.2779L8.4073 9.87637ZM13 16.9411V18.4411C13.8284 18.4411 14.4999 17.7696 14.5 16.9412L13 16.9411ZM0 16.9411H-1.5C-1.5 17.7695 -0.828427 18.4411 0 18.4411L0 16.9411ZM3.42689 10.0453L4.40522 11.1824L4.40522 11.1824L3.42689 10.0453ZM4.59297 9.87641L5.12747 8.47487L5.12747 8.47487L4.59297 9.87641ZM6.5003 10.2338L6.48901 11.7337C6.49654 11.7338 6.50406 11.7338 6.51159 11.7337L6.5003 10.2338ZM6.50066 10.4094C9.78935 10.4094 12.4554 7.74339 12.4554 4.4547H9.45536C9.45536 6.08654 8.13249 7.4094 6.50066 7.4094V10.4094ZM0.545956 4.4547C0.545956 7.74339 3.21197 10.4094 6.50066 10.4094V7.4094C4.86882 7.4094 3.54596 6.08654 3.54596 4.4547H0.545956ZM6.50066 -1.5C3.21197 -1.5 0.545956 1.16601 0.545956 4.4547H3.54596C3.54596 2.82286 4.86882 1.5 6.50066 1.5V-1.5ZM12.4554 4.4547C12.4554 1.16601 9.78935 -1.5 6.50066 -1.5V1.5C8.13249 1.5 9.45536 2.82286 9.45536 4.4547H12.4554ZM10.5515 8.90811C9.74316 8.21272 8.68572 8.16473 7.87268 8.47488L8.94192 11.2779C8.91702 11.2874 8.87813 11.2961 8.8223 11.2888C8.76243 11.2809 8.67642 11.2524 8.59493 11.1823L10.5515 8.90811ZM14.5 16.9412C14.5002 14.7167 13.9538 13.043 13.1313 11.722C12.3297 10.4345 11.3066 9.55778 10.5515 8.90811L8.59494 11.1823C9.36309 11.8432 10.0536 12.4547 10.5846 13.3076C11.0948 14.127 11.5001 15.246 11.5 16.941L14.5 16.9412ZM6.54243 18.4411H13V15.4411H6.54243V18.4411ZM6.45757 18.4411H6.54243V15.4411H6.45757V18.4411ZM0 18.4411H6.45757V15.4411H0V18.4411ZM2.44855 8.90829C1.69353 9.55793 0.670537 10.4346 -0.131081 11.7221C-0.953528 13.043 -1.5 14.7167 -1.5 16.9411H1.5C1.5 15.2462 1.90542 14.1272 2.41564 13.3077C2.94669 12.4548 3.63714 11.8432 4.40522 11.1824L2.44855 8.90829ZM5.12747 8.47487C4.31445 8.16481 3.25691 8.21277 2.44855 8.90829L4.40522 11.1824C4.32374 11.2525 4.23774 11.2809 4.17792 11.2888C4.12214 11.2962 4.08331 11.2874 4.05848 11.2779L5.12747 8.47487ZM6.51159 8.73383C6.02199 8.73014 5.55634 8.63843 5.12747 8.47487L4.05847 11.2779C4.81617 11.5669 5.63588 11.7273 6.48901 11.7337L6.51159 8.73383ZM7.87268 8.47488C7.44389 8.63844 6.97857 8.73014 6.48902 8.73383L6.51159 11.7337C7.36485 11.7273 8.18432 11.5669 8.94192 11.2779L7.87268 8.47488Z" fill="#2E2E2E" mask="url(#path-1-inside-1)"/>
</svg>
