<svg width="12" height="12" viewBox="0 0 12 12" fill="none" xmlns="http://www.w3.org/2000/svg">
<path d="M10.5085 4.5967H7.4042V1.49242C7.4042 0.72975 6.76364 0.105469 6.00069 0.105469C5.23775 0.105469 4.59719 0.72975 4.59719 1.49242V4.5967H1.4929C0.730238 4.5967 0.105957 5.23726 0.105957 6.00021C0.105957 6.76315 0.730238 7.40372 1.4929 7.40372H4.59719V10.508C4.59719 11.2707 5.23775 11.8949 6.00069 11.8949C6.76364 11.8949 7.4042 11.2707 7.4042 10.508V7.40372H10.5085C11.2712 7.40372 11.8954 6.76315 11.8954 6.00021C11.8954 5.23726 11.2712 4.5967 10.5085 4.5967Z" fill="#FDFDFD"/>
</svg>
