<svg width="128" height="92" viewBox="0 0 128 92" fill="none" xmlns="http://www.w3.org/2000/svg">
<circle opacity="0.15" cx="63" cy="57" r="35" fill="#F83D3D"/>
<circle opacity="0.2" cx="63" cy="57" r="26" fill="#F83D3D"/>
<path d="M57.1521 67.607C57.1772 68.21 57.6704 68.6858 58.2701 68.6858H68.7159C69.3156 68.6858 69.8088 68.21 69.8339 67.607L70.5798 51.762H56.4062L57.1521 67.607ZM65.856 55.6976C65.856 55.4451 66.0594 55.2404 66.3105 55.2404H67.0374C67.2882 55.2404 67.4919 55.4451 67.4919 55.6976V64.7502C67.4919 65.0028 67.2884 65.2075 67.0374 65.2075H66.3105C66.0595 65.2075 65.856 65.0029 65.856 64.7502V55.6976ZM62.6751 55.6976C62.6751 55.4451 62.8786 55.2404 63.1295 55.2404H63.8565C64.1073 55.2404 64.3109 55.4451 64.3109 55.6976V64.7502C64.3109 65.0028 64.1075 65.2075 63.8565 65.2075H63.1295C62.8786 65.2075 62.6751 65.0029 62.6751 64.7502V55.6976ZM59.4941 55.6976C59.4941 55.4451 59.6976 55.2404 59.9486 55.2404H60.6755C60.9265 55.2404 61.13 55.4451 61.13 55.6976V64.7502C61.13 65.0028 60.9265 65.2075 60.6755 65.2075H59.9486C59.6976 65.2075 59.4941 65.0029 59.4941 64.7502V55.6976Z" fill="#F83D3D"/>
<path d="M71.0758 47.4669H66.2568V46.5502C66.2568 46.42 66.1519 46.3145 66.0225 46.3145H60.962C60.8326 46.3145 60.7278 46.42 60.7278 46.5502V47.4669H55.9087C55.5209 47.4669 55.2065 47.7832 55.2065 48.1734V50.393H71.778V48.1735C71.778 47.7833 71.4636 47.4669 71.0758 47.4669Z" fill="#F83D3D"/>
<circle cx="22.5" cy="21.5" r="2.5" fill="#F83D3D"/>
<circle cx="126" cy="50" r="2" fill="#F83D3D"/>
<circle cx="98" cy="10" r="2.5" stroke="#F83D3D"/>
<circle cx="67.5" cy="11.5" r="1" stroke="#F83D3D"/>
<path d="M19 80.5C19 81.3284 18.3284 82 17.5 82C16.6716 82 16 81.3284 16 80.5C16 79.6716 16.6716 79 17.5 79C18.3284 79 19 79.6716 19 80.5Z" fill="#F83D3D"/>
<path d="M43.2271 1.25016L43.7136 6.42349L38.9901 4.25815L43.2271 1.25016Z" fill="#F83D3D"/>
<path d="M107.676 77L109.742 80.5797H105.609L107.676 77Z" fill="#F83D3D"/>
<path d="M110.615 25.4692L110.615 34.5303L102.767 29.9997L110.615 25.4692Z" fill="#F83D3D"/>
<path d="M5.25997 48.3128L3.76784 42.744L9.33657 44.2362L5.25997 48.3128Z" stroke="#F83D3D"/>
</svg>
