<svg width="135" height="105" viewBox="0 0 135 105" fill="none" xmlns="http://www.w3.org/2000/svg">
<circle opacity="0.15" cx="70" cy="67" r="35" fill="#06B68C"/>
<circle opacity="0.2" cx="70" cy="67" r="26" fill="#06B68C"/>
<path d="M68.1271 76.4474C66.8123 77.7701 64.6789 77.7701 63.3648 76.4474L55.9861 69.0247C54.6713 67.7026 54.6713 65.5565 55.9861 64.2345C57.3003 62.9118 59.4337 62.9118 60.7485 64.2345L65.1447 68.6563C65.4766 68.9896 66.0153 68.9896 66.3478 68.6563L78.2515 56.6815C79.5657 55.3588 81.6991 55.3588 83.0139 56.6815C83.6453 57.3166 84 58.1784 84 59.0766C84 59.9747 83.6453 60.8365 83.0139 61.4717L68.1271 76.4474Z" fill="#06B68C"/>
<circle cx="29.5" cy="31.5" r="2.5" fill="#06B68C"/>
<circle cx="133" cy="60" r="2" fill="#06B68C"/>
<circle cx="105" cy="20" r="3" fill="#06B68C"/>
<circle cx="74.5" cy="21.5" r="1.5" fill="#06B68C"/>
<path d="M26 90.5C26 91.3284 25.3284 92 24.5 92C23.6716 92 23 91.3284 23 90.5C23 89.6716 23.6716 89 24.5 89C25.3284 89 26 89.6716 26 90.5Z" fill="#06B68C"/>
<path d="M49.2897 18.8116L49.9664 17.3778C50.0135 17.2781 50.1044 17.209 50.2097 17.193L51.723 16.9631C51.9881 16.9228 52.0938 16.5823 51.9021 16.3869L50.8071 15.2708C50.731 15.1932 50.6962 15.0813 50.7142 14.9718L50.9727 13.3958C51.018 13.1198 50.7409 12.9094 50.5038 13.0396L49.1504 13.7836C49.0563 13.8353 48.9437 13.8353 48.8496 13.7836L47.4962 13.0396C47.2591 12.9092 46.982 13.1198 47.0273 13.3958L47.2858 14.9718C47.3038 15.0813 47.269 15.1932 47.1929 15.2708L46.0979 16.3869C45.9062 16.5824 46.0119 16.9229 46.277 16.9631L47.7903 17.193C47.8956 17.209 47.9865 17.2781 48.0336 17.3778L48.7103 18.8116C48.8287 19.0628 49.1712 19.0628 49.2897 18.8116Z" fill="#FF9B30"/>
<path d="M115.193 90.8744L115.644 89.9185C115.676 89.8521 115.736 89.806 115.806 89.7954L116.815 89.6421C116.992 89.6152 117.063 89.3882 116.935 89.2579L116.205 88.5139C116.154 88.4621 116.131 88.3875 116.143 88.3145L116.315 87.2639C116.345 87.0799 116.161 86.9396 116.003 87.0264L115.1 87.5224C115.038 87.5568 114.962 87.5568 114.9 87.5224L113.997 87.0264C113.839 86.9395 113.655 87.0799 113.685 87.2639L113.857 88.3145C113.869 88.3875 113.846 88.4621 113.795 88.5139L113.065 89.2579C112.937 89.3883 113.008 89.6153 113.185 89.6421L114.194 89.7954C114.264 89.806 114.324 89.8521 114.356 89.9185L114.807 90.8744C114.886 91.0419 115.114 91.0419 115.193 90.8744Z" fill="#FF9B30"/>
<path d="M13.2897 58.8116L13.9664 57.3778C14.0135 57.2781 14.1044 57.209 14.2097 57.193L15.723 56.9631C15.9881 56.9228 16.0938 56.5823 15.9021 56.3869L14.8071 55.2708C14.731 55.1932 14.6962 55.0813 14.7142 54.9718L14.9727 53.3958C15.018 53.1198 14.7409 52.9094 14.5038 53.0396L13.1504 53.7836C13.0563 53.8353 12.9437 53.8353 12.8496 53.7836L11.4962 53.0396C11.2591 52.9092 10.982 53.1198 11.0273 53.3958L11.2858 54.9718C11.3038 55.0813 11.269 55.1932 11.1929 55.2708L10.0979 56.3869C9.90618 56.5824 10.0119 56.9229 10.277 56.9631L11.7903 57.193C11.8956 57.209 11.9865 57.2781 12.0336 57.3778L12.7103 58.8116C12.8287 59.0628 13.1712 59.0628 13.2897 58.8116Z" fill="#FF9B30"/>
<path d="M113.386 46.7489L114.289 44.8371C114.351 44.7041 114.473 44.612 114.613 44.5907L116.631 44.2841C116.984 44.2304 117.125 43.7763 116.869 43.5158L115.409 42.0277C115.308 41.9242 115.262 41.7751 115.286 41.629L115.63 39.5277C115.691 39.1597 115.321 38.8791 115.005 39.0528L113.201 40.0448C113.075 40.1137 112.925 40.1137 112.799 40.0448L110.995 39.0528C110.679 38.879 110.309 39.1597 110.37 39.5277L110.714 41.629C110.738 41.7751 110.692 41.9242 110.591 42.0277L109.131 43.5158C108.875 43.7765 109.016 44.2305 109.369 44.2841L111.387 44.5907C111.527 44.612 111.649 44.7041 111.711 44.8371L112.614 46.7489C112.772 47.0837 113.228 47.0837 113.386 46.7489Z" fill="#FF9B30"/>
</svg>
