<svg width="151" height="76" viewBox="0 0 151 76" fill="none" xmlns="http://www.w3.org/2000/svg">
<path d="M76.0296 75.9993C55.0117 75.9993 38 58.9801 38 38C38 16.9978 55.0088 0 76.0296 0C97.0482 0 114.059 16.9955 114.059 38C114.059 59.0004 97.0244 75.9993 76.0296 75.9993Z" fill="#FFF1E2"/>
<path fill-rule="evenodd" clip-rule="evenodd" d="M46.6992 62.1907C54.4098 51.7401 64.9601 46.9066 76.0251 46.9062C76.0255 46.9062 76.0259 46.9062 76.0263 46.9062C91.5774 46.9062 99.9604 55.8481 104.244 60.4173C104.762 60.9698 105.22 61.4585 105.624 61.8596C98.5725 70.5732 88.6448 75.265 78.4977 75.9203C66.8467 76.6727 54.9064 72.1035 46.6992 62.1907Z" fill="#FF9B30"/>
<path fill-rule="evenodd" clip-rule="evenodd" d="M62.6602 26.8672C62.6602 34.2334 68.6574 40.2265 76.0299 40.2265C83.4025 40.2265 89.3997 34.234 89.3997 26.8672V22.414C89.3997 15.0473 83.4025 9.05469 76.0299 9.05469C68.6574 9.05469 62.6602 15.0478 62.6602 22.414V26.8672Z" fill="#FF9B30"/>
<path fill-rule="evenodd" clip-rule="evenodd" d="M75.7399 46.9409C64.8763 46.9409 53.9588 51.6603 46.3887 62.0291C47.5182 63.4079 48.7229 64.6828 49.9915 65.854C49.7548 65.5664 49.5209 65.2744 49.2898 64.9781C57.3177 53.4268 68.3021 48.0844 79.8225 48.0844H79.8226C82.4843 48.0844 84.9444 48.3516 87.217 48.8204C83.9237 47.6715 80.1221 46.9409 75.741 46.9409H75.7399Z" fill="#FFD19F"/>
<path fill-rule="evenodd" clip-rule="evenodd" d="M67.6242 37.2913C64.5675 34.8409 62.6074 31.0784 62.6074 26.8672V22.414C62.6074 15.0478 68.6047 9.05469 75.9772 9.05469C79.6744 9.05469 83.026 10.5621 85.4487 12.9942C83.1796 11.175 80.3062 10.0789 77.1821 10.0591L77.0957 10.0588C69.7232 10.0588 63.7259 16.052 63.7259 23.4182V27.8713C63.7259 31.5432 65.2162 34.874 67.6242 37.2913Z" fill="#FFD19F"/>
<ellipse cx="138.696" cy="63.7057" rx="12.3037" ry="12.2941" fill="#FF9B30" fill-opacity="0.1"/>
<ellipse cx="24.6082" cy="11.1766" rx="5.59259" ry="5.58823" fill="#FF9B30" fill-opacity="0.1"/>
<ellipse cx="38.0294" cy="64.8236" rx="3.35555" ry="3.35294" fill="#FF9B30" fill-opacity="0.1"/>
<ellipse cx="144.289" cy="20.1176" rx="3.35555" ry="3.35294" fill="#FF9B30" fill-opacity="0.1"/>
</svg>
