<svg width="13" height="13" viewBox="0 0 13 13" fill="none" xmlns="http://www.w3.org/2000/svg">
<path d="M10.5475 12.5793L6.5 8.53168L2.45251 12.5793C1.89143 13.1402 0.981819 13.1402 0.420737 12.5793C-0.140246 12.0182 -0.140246 11.1086 0.420737 10.5475L4.46832 6.5L0.420737 2.45251C-0.140246 1.89143 -0.140246 0.981819 0.420737 0.420737C0.981819 -0.140246 1.89143 -0.140246 2.45251 0.420737L6.5 4.46832L10.5475 0.420737C11.1086 -0.140246 12.0182 -0.140246 12.5793 0.420737C13.1402 0.981819 13.1402 1.89143 12.5793 2.45251L8.53168 6.5L12.5793 10.5475C13.1402 11.1086 13.1402 12.0182 12.5793 12.5793C12.0182 13.1402 11.1086 13.1402 10.5475 12.5793Z" fill="#2E2E2E"/>
</svg>
