<svg width="70" height="70" viewBox="0 0 70 70" fill="none" xmlns="http://www.w3.org/2000/svg">
<circle opacity="0.15" cx="35" cy="35" r="35" fill="#F83D3D"/>
<circle opacity="0.2" cx="35" cy="35" r="26" fill="#F83D3D"/>
<path d="M29.1526 45.607C29.1777 46.21 29.6709 46.6858 30.2706 46.6858H40.7164C41.3161 46.6858 41.8092 46.21 41.8343 45.607L42.5803 29.762H28.4067L29.1526 45.607ZM37.8565 33.6976C37.8565 33.4451 38.0599 33.2404 38.3109 33.2404H39.0379C39.2887 33.2404 39.4924 33.4451 39.4924 33.6976V42.7502C39.4924 43.0028 39.2889 43.2075 39.0379 43.2075H38.3109C38.06 43.2075 37.8565 43.0029 37.8565 42.7502V33.6976ZM34.6756 33.6976C34.6756 33.4451 34.8791 33.2404 35.13 33.2404H35.8569C36.1078 33.2404 36.3114 33.4451 36.3114 33.6976V42.7502C36.3114 43.0028 36.108 43.2075 35.8569 43.2075H35.13C34.8791 43.2075 34.6756 43.0029 34.6756 42.7502V33.6976ZM31.4946 33.6976C31.4946 33.4451 31.6981 33.2404 31.9491 33.2404H32.676C32.927 33.2404 33.1305 33.4451 33.1305 33.6976V42.7502C33.1305 43.0028 32.927 43.2075 32.676 43.2075H31.9491C31.6981 43.2075 31.4946 43.0029 31.4946 42.7502V33.6976Z" fill="#F83D3D"/>
<path d="M43.0763 25.4669H38.2573V24.5502C38.2573 24.42 38.1524 24.3145 38.023 24.3145H32.9625C32.8331 24.3145 32.7282 24.42 32.7282 24.5502V25.4669H27.9092C27.5214 25.4669 27.207 25.7832 27.207 26.1734V28.393H43.7785V26.1735C43.7785 25.7833 43.4641 25.4669 43.0763 25.4669Z" fill="#F83D3D"/>
</svg>
