<svg width="70" height="70" viewBox="0 0 70 70" fill="none" xmlns="http://www.w3.org/2000/svg">
<circle opacity="0.15" cx="35" cy="35" r="35" fill="#06B68C"/>
<circle opacity="0.2" cx="35" cy="35" r="26" fill="#06B68C"/>
<path d="M33.1271 44.4474C31.8123 45.7701 29.6789 45.7701 28.3648 44.4474L20.9861 37.0247C19.6713 35.7026 19.6713 33.5565 20.9861 32.2345C22.3003 30.9118 24.4337 30.9118 25.7485 32.2345L30.1447 36.6563C30.4766 36.9896 31.0153 36.9896 31.3478 36.6563L43.2515 24.6815C44.5657 23.3588 46.6991 23.3588 48.0139 24.6815C48.6453 25.3166 49 26.1784 49 27.0766C49 27.9747 48.6453 28.8365 48.0139 29.4717L33.1271 44.4474Z" fill="#06B68C"/>
</svg>
