<svg width="32" height="32" viewBox="0 0 32 32" fill="none" xmlns="http://www.w3.org/2000/svg">
<path d="M25.2216 21.0738C25.1378 20.8382 24.8858 20.7178 24.6587 20.8047L20.1009 22.5491C19.8738 22.6361 19.7577 22.8975 19.8415 23.133C19.9068 23.3167 20.0744 23.4304 20.2527 23.4304C20.303 23.4304 20.3543 23.4213 20.4044 23.4021L24.9621 21.6577C25.1892 21.5708 25.3054 21.3094 25.2216 21.0738Z" fill="#2E2E2E"/>
<path d="M19.4086 23.2979C19.3248 23.0623 19.0728 22.9419 18.8457 23.0288L18.6527 23.1026C18.4256 23.1895 18.3094 23.451 18.3932 23.6865C18.4585 23.8701 18.6261 23.9839 18.8044 23.9839C18.8548 23.9839 18.906 23.9748 18.9561 23.9556L19.1491 23.8818C19.3762 23.7949 19.4923 23.5335 19.4086 23.2979Z" fill="#2E2E2E"/>
<path d="M25.22 19.2214C25.1362 18.9859 24.8842 18.8655 24.6571 18.9523L21.0553 20.3309C20.8282 20.4178 20.712 20.6792 20.7958 20.9147C20.8612 21.0984 21.0287 21.2121 21.207 21.2121C21.2574 21.2121 21.3087 21.203 21.3587 21.1839L24.9606 19.8053C25.1877 19.7184 25.3038 19.457 25.22 19.2214Z" fill="#2E2E2E"/>
<path d="M25.22 17.3883C25.1362 17.1527 24.8842 17.0323 24.6571 17.1191L21.0553 18.4977C20.8282 18.5846 20.712 18.846 20.7958 19.0816C20.8612 19.2652 21.0287 19.3789 21.207 19.3789C21.2574 19.3789 21.3087 19.3698 21.3587 19.3507L24.9606 17.9721C25.1877 17.8852 25.3038 17.6238 25.22 17.3883Z" fill="#2E2E2E"/>
<path d="M26.7135 9.07048L16.1517 5.02808C16.0538 4.99064 15.9462 4.99064 15.8483 5.02808L5.28656 9.07048C5.25197 9.08376 5.21863 9.10168 5.18769 9.12401C5.07008 9.20905 5 9.34833 5 9.49698V22.503C5 22.6934 5.11434 22.8636 5.28652 22.9295L15.8483 26.9719C15.8975 26.9908 15.9489 27 16 27C16.0516 27 16.1029 26.9903 16.1516 26.9717L26.7135 22.9295C26.8857 22.8636 27 22.6934 27 22.503V9.49698C27 9.30657 26.8857 9.1364 26.7135 9.07048ZM15.5618 25.8932L5.87648 22.1862V10.1493L7.84857 10.9041V16.4121C7.84857 16.6025 7.96291 16.7727 8.13509 16.8386L12.8681 18.6502C12.9174 18.669 12.9687 18.6783 13.0198 18.6783C13.1082 18.6783 13.1959 18.6505 13.2705 18.5966C13.388 18.5116 13.4581 18.3723 13.4581 18.2237V13.0511L15.5617 13.8562L15.5618 25.8932ZM12.5817 12.7156V17.5713L8.72509 16.0952V11.2395L12.5817 12.7156ZM9.55284 10.5836L13.0199 9.25661L16.487 10.5836L13.0199 11.9106L9.55284 10.5836ZM16 13.0548L14.2812 12.397L17.9047 11.0101C18.0769 10.9441 18.1912 10.774 18.1912 10.5836C18.1912 10.3932 18.0769 10.223 17.9047 10.1571L13.1716 8.34553C13.0737 8.30809 12.9661 8.30809 12.8682 8.34553L8.28208 10.1009L6.70427 9.49698L16 5.93915L25.2957 9.49702L16 13.0548ZM26.1235 22.1862L16.4383 25.8931V13.8562L26.1235 10.1493V22.1862Z" fill="#2E2E2E"/>
</svg>
