<svg width="36" height="36" viewBox="0 0 36 36" fill="none" xmlns="http://www.w3.org/2000/svg">
<path d="M27.9792 23.086C27.1729 23.086 26.4068 23.3949 25.829 23.9534C25.2511 24.5185 24.9285 25.2545 24.9285 26.043C24.9285 26.8315 25.2443 27.5675 25.829 28.1326C26.4136 28.6912 27.1729 29 27.9792 29C29.6323 29 30.9762 27.6726 30.9762 26.043C30.9762 24.4134 29.6323 23.086 27.9792 23.086ZM27.9792 27.6858C27.0519 27.6858 26.2724 26.9367 26.2724 26.043C26.2724 25.1493 27.0519 24.4002 27.9792 24.4002C28.8931 24.4002 29.6323 25.1362 29.6323 26.043C29.6323 26.9498 28.8931 27.6858 27.9792 27.6858ZM28.7587 13.236C28.6378 13.1243 28.4765 13.0651 28.3085 13.0651H24.8613C24.4918 13.0651 24.1894 13.3608 24.1894 13.7222V19.1105C24.1894 19.4719 24.4918 19.7676 24.8613 19.7676H30.3311C30.7007 19.7676 31.0031 19.4719 31.0031 19.1105V15.503C31.0031 15.319 30.9224 15.1416 30.7813 15.0167L28.7587 13.236ZM29.6591 18.4534H25.5333V14.3728H28.0464L29.6591 15.7921V18.4534ZM11.5699 23.086C10.7636 23.086 9.99756 23.3949 9.41967 23.9534C8.84178 24.5185 8.51924 25.2545 8.51924 26.043C8.51924 26.8315 8.83506 27.5675 9.41967 28.1326C10.0043 28.6912 10.7636 29 11.5699 29C13.223 29 14.5669 27.6726 14.5669 26.043C14.5669 24.4134 13.223 23.086 11.5699 23.086ZM11.5699 27.6858C10.6426 27.6858 9.86316 26.9367 9.86316 26.043C9.86316 25.1493 10.6426 24.4002 11.5699 24.4002C12.4838 24.4002 13.223 25.1362 13.223 26.043C13.223 26.9498 12.4838 27.6858 11.5699 27.6858ZM7.08797 23.8943H5.73732V22.1464C5.73732 21.7849 5.43494 21.4892 5.06536 21.4892C4.69579 21.4892 4.3934 21.7849 4.3934 22.1464V24.5514C4.3934 24.9128 4.69579 25.2085 5.06536 25.2085H7.08797C7.45754 25.2085 7.75993 24.9128 7.75993 24.5514C7.75993 24.19 7.45754 23.8943 7.08797 23.8943ZM10.4948 20.313C10.4948 19.9516 10.1924 19.6559 9.82285 19.6559H1.67196C1.30238 19.6559 1 19.9516 1 20.313C1 20.6744 1.30238 20.9701 1.67196 20.9701H9.82285C10.1924 20.9701 10.4948 20.681 10.4948 20.313ZM3.03604 17.9409L11.1869 17.9869C11.5565 17.9869 11.8589 17.6977 11.8656 17.3363C11.8723 16.9683 11.5699 16.6726 11.2004 16.6726L3.04948 16.6266C3.04276 16.6266 3.04276 16.6266 3.04276 16.6266C2.67318 16.6266 2.3708 16.9158 2.3708 17.2772C2.36408 17.6452 2.66646 17.9409 3.03604 17.9409ZM4.40684 14.9576H12.5577C12.9273 14.9576 13.2297 14.6619 13.2297 14.3005C13.2297 13.9391 12.9273 13.6434 12.5577 13.6434H4.40684C4.03726 13.6434 3.73488 13.9391 3.73488 14.3005C3.73488 14.6619 4.03726 14.9576 4.40684 14.9576ZM33.7514 14.0705L28.9401 10.1738C28.8192 10.0753 28.6713 10.0227 28.5101 10.0227H22.8522V7.65711C22.8522 7.2957 22.5498 7 22.1802 7H5.06536C4.69579 7 4.3934 7.2957 4.3934 7.65711V12.4671C4.3934 12.8286 4.69579 13.1243 5.06536 13.1243C5.43494 13.1243 5.73732 12.8286 5.73732 12.4671V8.31422H21.515V23.8943H16.0049C15.6353 23.8943 15.3329 24.19 15.3329 24.5514C15.3329 24.9128 15.6353 25.2085 16.0049 25.2085H24.2095C24.5791 25.2085 24.8815 24.9128 24.8815 24.5514C24.8815 24.19 24.5791 23.8943 24.2095 23.8943H22.8589V11.3369H28.2749L32.6561 14.8853L32.609 23.8811H31.9102C31.5406 23.8811 31.2382 24.1768 31.2382 24.5382C31.2382 24.8996 31.5406 25.1953 31.9102 25.1953H33.2743C33.6439 25.1953 33.9462 24.9062 33.9462 24.5448L34 14.583C33.9933 14.3859 33.9059 14.1953 33.7514 14.0705Z" fill="#2E2E2E"/>
</svg>
