<svg width="32" height="32" viewBox="0 0 32 32" fill="none" xmlns="http://www.w3.org/2000/svg">
<path d="M9.125 23.3047C9.36219 23.3047 9.55469 23.4972 9.55469 23.7344C9.55469 23.9716 9.36219 24.1641 9.125 24.1641C8.88781 24.1641 8.69531 23.9716 8.69531 23.7344C8.69531 23.4972 8.88781 23.3047 9.125 23.3047Z" fill="#2E2E2E"/>
<path d="M7.83594 7.03809V6.28906C7.83594 5.57827 8.41421 5 9.125 5H22.875C23.5858 5 24.1641 5.57827 24.1641 6.28906V7.03809C26.9668 12.2143 26.9999 12.0606 27 12.3042C27 12.304 27 12.3044 27 12.3042V13.1641C27 13.9088 26.5694 14.6015 25.8828 14.9954V26.5703C25.8828 26.8076 25.6904 27 25.4531 27H6.54688C6.3096 27 6.11719 26.8076 6.11719 26.5703V14.9954C5.43755 14.6018 5 13.901 5 13.1641V12.3047C5 12.3049 5 12.3045 5 12.3047C5.00013 12.0584 5.06054 12.1638 7.83594 7.03809ZM6.15637 11.875H8.81528L10.2476 7.57812H8.51966L6.15637 11.875ZM12.1328 12.7344H9.55469V13.1641C9.55469 13.8749 10.133 14.4531 10.8438 14.4531C11.5545 14.4531 12.1328 13.8749 12.1328 13.1641V12.7344ZM12.1985 11.875L12.9146 7.57812H11.1535L9.72119 11.875H12.1985ZM23.3047 6.28906C23.3047 6.05213 23.1119 5.85938 22.875 5.85938H9.125C8.88807 5.85938 8.69531 6.05213 8.69531 6.28906V6.71875C9.10446 6.71875 22.8924 6.71875 23.3047 6.71875V6.28906ZM12.9922 12.7344V13.1641C12.9922 13.8749 13.5705 14.4531 14.2812 14.4531C14.992 14.4531 15.5703 13.8749 15.5703 13.1641V12.7344H12.9922ZM15.5703 11.875V7.57812H13.7859L13.0697 11.875H15.5703ZM18.9303 11.875L18.2141 7.57812H16.4297V11.875H18.9303ZM16.4297 12.7344V13.1641C16.4297 13.8749 17.008 14.4531 17.7188 14.4531C18.4295 14.4531 19.0078 13.8749 19.0078 13.1641V12.7344H16.4297ZM22.2789 11.875L20.8466 7.57812H19.0854L19.8015 11.875H22.2789ZM19.8672 12.7344V13.1641C19.8672 13.8749 20.4455 14.4531 21.1562 14.4531C21.867 14.4531 22.4453 13.8749 22.4453 13.1641V12.7344H19.8672ZM23.4803 7.57812H21.7524L23.1847 11.875H25.8436L23.4803 7.57812ZM26.1406 13.1641V12.7344H23.3047V13.1641C23.3047 13.8387 23.9805 14.4531 24.7227 14.4531C24.9097 14.4531 25.1036 14.4125 25.2841 14.3353C25.7964 14.1174 26.1406 13.6467 26.1406 13.1641ZM18.1484 26.1406H22.4453V22.4453H18.1484V26.1406ZM18.1484 21.5859H22.4453V17.8906H18.1484V21.5859ZM6.97656 26.1406H17.2891V17.4609C17.2891 17.2237 17.4815 17.0312 17.7188 17.0312H22.875C23.1123 17.0312 23.3047 17.2237 23.3047 17.4609V26.1406H25.0234V15.2915C24.9238 15.305 24.8235 15.3125 24.7227 15.3125C24.1571 15.3125 23.5855 15.0885 23.1544 14.6978C23.059 14.6114 22.9732 14.519 22.8961 14.4222C22.5054 14.9611 21.8713 15.3125 21.1562 15.3125C20.4542 15.3125 19.8298 14.974 19.4375 14.4516C19.0452 14.974 18.4208 15.3125 17.7188 15.3125C17.0167 15.3125 16.3923 14.974 16 14.4516C15.6077 14.974 14.9833 15.3125 14.2812 15.3125C13.5792 15.3125 12.9548 14.974 12.5625 14.4516C12.1702 14.974 11.5458 15.3125 10.8438 15.3125C10.1287 15.3125 9.49462 14.9611 9.10386 14.4222C9.02682 14.519 8.94096 14.6114 8.84562 14.6978C8.41451 15.0885 7.84286 15.3125 7.27734 15.3125C7.17671 15.3125 7.07638 15.3053 6.97656 15.2917V26.1406ZM5.85938 13.1641C5.85938 13.6603 6.2164 14.1364 6.74771 14.3489C6.92148 14.4181 7.09963 14.4531 7.27734 14.4531C8.01946 14.4531 8.69531 13.8387 8.69531 13.1641V12.7344H5.85938V13.1641Z" fill="#2E2E2E"/>
<path d="M8.26562 21.5859H8.69531V17.4609C8.69531 17.2237 8.88773 17.0312 9.125 17.0312H14.2812C14.5185 17.0312 14.7109 17.2237 14.7109 17.4609V21.5859H15.1406C15.3779 21.5859 15.5703 21.7784 15.5703 22.0156C15.5703 22.2529 15.3779 22.4453 15.1406 22.4453H8.26562C8.02835 22.4453 7.83594 22.2529 7.83594 22.0156C7.83594 21.7784 8.02835 21.5859 8.26562 21.5859ZM9.55469 21.5859H13.8516V17.8906H9.55469V21.5859Z" fill="#2E2E2E"/>
<path d="M10.8438 23.3047H14.2812C14.5185 23.3047 14.7109 23.4971 14.7109 23.7344C14.7109 23.9716 14.5185 24.1641 14.2812 24.1641H10.8438C10.6065 24.1641 10.4141 23.9716 10.4141 23.7344C10.4141 23.4971 10.6065 23.3047 10.8438 23.3047Z" fill="#2E2E2E"/>
</svg>
