<svg width="18" height="20" viewBox="0 0 18 20" fill="none" xmlns="http://www.w3.org/2000/svg">
<path fill-rule="evenodd" clip-rule="evenodd" d="M0.00073023 0.731707C0.00073023 0.327597 0.327428 0 0.73043 0H17.2703C17.6733 0 18 0.327597 18 0.731707V8.53659C18 8.9407 17.6733 9.26829 17.2703 9.26829H0.73043C0.327428 9.26829 0.00073023 8.9407 0.00073023 8.53659V0.731707ZM1.46013 1.46341V7.80488H16.5406V1.46341H1.46013ZM0.2137 10.946C0.350547 10.8088 0.53616 10.7317 0.7297 10.7317H17.2696C17.6725 10.7317 17.9992 11.0593 17.9993 11.4633L18 19.2682C18 19.4623 17.9231 19.6484 17.7863 19.7857C17.6495 19.9229 17.4638 20 17.2703 20H0.73043C0.327455 20 0.000768041 19.6724 0.00073023 19.2684L3.21378e-09 11.4635C-1.81481e-05 11.2694 0.0768528 11.0833 0.2137 10.946ZM1.45947 12.1951L1.46006 18.5366H16.5405L16.5399 12.1951H1.45947Z" fill="#2E2E2E"/>
</svg>
