<svg width="19" height="20" viewBox="0 0 19 20" fill="none" xmlns="http://www.w3.org/2000/svg">
<path fill-rule="evenodd" clip-rule="evenodd" d="M0 0.731707C0 0.327597 0.311217 0 0.695122 0H7.98954C8.37344 0 8.68466 0.327597 8.68466 0.731707V8.41004C8.68466 8.81415 8.37344 9.14175 7.98954 9.14175H0.695122C0.311217 9.14175 0 8.81415 0 8.41004V0.731707ZM1.39024 1.46341V7.67833H7.29442V1.46341H1.39024ZM10.3153 0.731707C10.3153 0.327597 10.6266 0 11.0105 0H18.3049C18.6888 0 19 0.327597 19 0.731707V8.41004C19 8.81415 18.6888 9.14175 18.3049 9.14175H11.0105C10.6266 9.14175 10.3153 8.81415 10.3153 8.41004V0.731707ZM11.7056 1.46341V7.67833H17.6098V1.46341H11.7056ZM0 11.59C0 11.1858 0.311217 10.8583 0.695122 10.8583H7.98954C8.37344 10.8583 8.68466 11.1858 8.68466 11.59V19.2683C8.68466 19.6724 8.37344 20 7.98954 20H0.695122C0.311217 20 0 19.6724 0 19.2683V11.59ZM1.39024 12.3217V18.5366H7.29442V12.3217H1.39024ZM10.3153 11.59C10.3153 11.1858 10.6266 10.8583 11.0105 10.8583H18.3049C18.6888 10.8583 19 11.1858 19 11.59V19.2683C19 19.6724 18.6888 20 18.3049 20H11.0105C10.6266 20 10.3153 19.6724 10.3153 19.2683V11.59ZM11.7056 12.3217V18.5366H17.6098V12.3217H11.7056Z" fill="#FF9B30"/>
</svg>
