<svg width="211" height="190" viewBox="0 0 211 190" fill="none" xmlns="http://www.w3.org/2000/svg">
<path d="M209.823 63.9992L0.925781 64.6864L1.33125 185.985C1.33863 188.194 3.13547 189.979 5.3446 189.972L206.241 189.311C208.45 189.304 210.235 187.507 210.228 185.298L209.823 63.9992Z" fill="#FFB05B"/>
<path d="M209.801 63.981L190.91 75.8918L105.589 129.632L20.671 76.5509L1.68457 64.6636L20.6 53.0117L65.9827 25.0707L105.163 0.895874L144.817 24.8117L190.839 52.5409L209.801 63.981Z" fill="#ED9130"/>
<path d="M190.744 24.647L190.91 75.8919L105.589 129.632L20.6711 76.551L20.5054 25.2119L190.744 24.647Z" fill="white"/>
<path d="M50.1216 49.3635L82.2943 49.2456" stroke="#DADFEA" stroke-width="3" stroke-miterlimit="10" stroke-linecap="round"/>
<path d="M49.9526 67.6538L159.349 67.3002" stroke="#DADFEA" stroke-width="3" stroke-miterlimit="10" stroke-linecap="round"/>
<path d="M50 80.2473L159.397 79.8937" stroke="#DADFEA" stroke-width="3" stroke-miterlimit="10" stroke-linecap="round"/>
</svg>
