<svg width="20" height="20" viewBox="0 0 20 20" fill="none" xmlns="http://www.w3.org/2000/svg">
<rect width="20" height="20" fill="white"/>
<path d="M10 5C6.81818 5 4.08182 6.86 3 9.5C4.08182 12.14 6.81818 14 10 14C13.1818 14 15.9182 12.14 17 9.5C15.9182 6.86 13.1818 5 10 5ZM10 12.5C8.21818 12.5 6.81818 11.18 6.81818 9.5C6.81818 7.82 8.21818 6.5 10 6.5C11.7818 6.5 13.1818 7.82 13.1818 9.5C13.1818 11.18 11.7818 12.5 10 12.5ZM10 7.7C8.91818 7.7 8.09091 8.48 8.09091 9.5C8.09091 10.52 8.91818 11.3 10 11.3C11.0818 11.3 11.9091 10.52 11.9091 9.5C11.9091 8.48 11.0818 7.7 10 7.7Z" fill="#797979"/>
</svg>
